<svg height="100%" width="100%" id="svg" viewBox="0 0 1440 400" xmlns="http://www.w3.org/2000/svg" class="transition duration-300 ease-in-out delay-150"><defs><linearGradient id="gradient"><stop offset="5%" stop-color="#e9b81d66"></stop><stop offset="95%" stop-color="#39b62066"></stop></linearGradient></defs><path d="M 0,400 C 0,400 0,100 0,100 C 22.545221007627106,88.21630087661552 45.09044201525421,76.43260175323105 68,75 C 90.90955798474579,73.56739824676895 114.18345294661029,82.48589386369133 135,96 C 155.8165470533897,109.51410613630867 174.17574619830464,127.62382279200366 203,135 C 231.82425380169536,142.37617720799634 271.1135622601712,139.01881496829395 299,128 C 326.8864377398288,116.98118503170603 343.37000476101076,98.30091733482051 364,98 C 384.62999523898924,97.69908266517949 409.40641869578565,115.77751569242402 435,119 C 460.59358130421435,122.22248430757598 487.0043204558468,110.58901989548335 509,115 C 530.9956795441532,119.41098010451665 548.576299480827,139.86640472564264 571,136 C 593.423700519173,132.13359527435736 620.6904816208452,103.94536120194601 646,100 C 671.3095183791548,96.05463879805399 694.6617740357925,116.35215046657325 718,122 C 741.3382259642075,127.64784953342675 764.6624222359844,118.64603693176093 785,124 C 805.3375777640156,129.35396306823907 822.68853702027,149.06370180638305 852,134 C 881.31146297973,118.93629819361696 922.5834296829357,69.09915584270695 949,64 C 975.4165703170643,58.90084415729306 986.9777442479876,98.53967482278914 1009,105 C 1031.0222557520124,111.46032517721086 1063.5055933251138,84.74214486613646 1088,79 C 1112.4944066748862,73.25785513386354 1128.9998824515578,88.4917457126651 1149,92 C 1169.0001175484422,95.5082542873349 1192.4948768686547,87.29087228320316 1221,87 C 1249.5051231313453,86.70912771679684 1283.0206100738235,94.34476515452224 1308,102 C 1332.9793899261765,109.65523484547776 1349.4226828360504,117.33006709870793 1370,117 C 1390.5773171639496,116.66993290129207 1415.2886585819747,108.33496645064604 1440,100 C 1440,100 1440,400 1440,400 Z" stroke="none" stroke-width="0" fill="url(#gradient)" class="transition-all duration-300 ease-in-out delay-150"></path><defs><linearGradient id="gradient"><stop offset="5%" stop-color="#e9b81d88"></stop><stop offset="95%" stop-color="#39b62088"></stop></linearGradient></defs><path d="M 0,400 C 0,400 0,200 0,200 C 25.939899282518986,181.88122830048113 51.87979856503797,163.76245660096225 78,172 C 104.12020143496203,180.23754339903775 130.4207050223671,214.83140189663203 154,214 C 177.5792949776329,213.16859810336797 198.4373813454937,176.91193581250954 223,165 C 247.5626186545063,153.08806418749046 275.82976959565826,165.52085485332978 299,174 C 322.17023040434174,182.47914514667022 340.24354027187326,187.00464477417125 361,187 C 381.75645972812674,186.99535522582875 405.19606931684865,182.4605660499851 432,193 C 458.80393068315135,203.5394339500149 488.97218246073214,229.15309102588847 510,228 C 531.0278175392679,226.84690897411153 542.9152008402228,198.9270698464611 566,193 C 589.0847991597772,187.0729301535389 623.3670141783764,203.13862958826712 647,214 C 670.6329858216236,224.86137041173288 683.6167424462714,230.51841180047052 710,230 C 736.3832575537286,229.48158819952948 776.166016036538,222.78772320985078 800,209 C 823.833983963462,195.21227679014922 831.7191934075765,174.3306953601264 856,179 C 880.2808065924235,183.6693046398736 920.9572103331561,213.88949534964357 948,222 C 975.0427896668439,230.11050465035643 988.451965259799,216.1113232412994 1009,215 C 1029.548034740201,213.8886767587006 1057.234928627648,225.66521168515885 1081,221 C 1104.765071372352,216.33478831484115 1124.6083202296081,195.22783001806516 1149,190 C 1173.3916797703919,184.77216998193484 1202.3317904539194,195.42346824258047 1230,194 C 1257.6682095460806,192.57653175741953 1284.064517954714,179.07829701161293 1309,188 C 1333.935482045286,196.92170298838707 1357.4101377272245,228.26334371096775 1379,234 C 1400.5898622727755,239.73665628903225 1420.2949311363877,219.8683281445161 1440,200 C 1440,200 1440,400 1440,400 Z" stroke="none" stroke-width="0" fill="url(#gradient)" class="transition-all duration-300 ease-in-out delay-150"></path><defs><linearGradient id="gradient"><stop offset="5%" stop-color="#e9b81dff"></stop><stop offset="95%" stop-color="#39b620ff"></stop></linearGradient></defs><path d="M 0,400 C 0,400 0,300 0,300 C 14.95339661832115,294.86749720439934 29.9067932366423,289.7349944087986 58,296 C 86.0932067633577,302.2650055912014 127.32622367175196,319.9275195692047 154,325 C 180.67377632824804,330.0724804307953 192.7883120763498,322.55492731438244 215,308 C 237.2116879236502,293.44507268561756 269.52052802284874,271.8527711732657 297,268 C 324.47947197715126,264.1472288267343 347.1295758322554,278.03398799255507 366,288 C 384.8704241677446,297.96601200744493 399.96116864812956,304.01127685651403 425,298 C 450.03883135187044,291.98872314348597 485.0257495752261,273.9209045813888 514,268 C 542.9742504247739,262.0790954186112 565.9358330509663,268.3051048179308 586,269 C 606.0641669490337,269.6948951820692 623.2309182209086,264.85867614688794 647,267 C 670.7690817790914,269.14132385311206 701.1404940653995,278.26019059451744 727,287 C 752.8595059346005,295.73980940548256 774.2071055174933,304.1005614750423 796,306 C 817.7928944825067,307.8994385249577 840.0310838646276,303.33756350531326 866,307 C 891.9689161353724,310.66243649468674 921.6685590239967,322.5491845037047 948,316 C 974.3314409760033,309.4508154962953 997.2946800393852,284.4656984798681 1015,287 C 1032.7053199606148,289.5343015201319 1045.1527208184623,319.5880215768229 1071,333 C 1096.8472791815377,346.4119784231771 1136.0944366867657,343.1822152128403 1164,332 C 1191.9055633132343,320.8177847871597 1208.469532434475,301.683117571816 1231,306 C 1253.530467565525,310.316882428184 1282.0274335753336,338.08531449989573 1307,330 C 1331.9725664246664,321.91468550010427 1353.4207332641904,277.9756244286012 1375,267 C 1396.5792667358096,256.0243755713988 1418.2896333679048,278.01218778569944 1440,300 C 1440,300 1440,400 1440,400 Z" stroke="none" stroke-width="0" fill="url(#gradient)" class="transition-all duration-300 ease-in-out delay-150"></path></svg>
