<svg height="100%" width="100%" id="svg" viewBox="0 0 1440 400" xmlns="http://www.w3.org/2000/svg" class="transition duration-300 ease-in-out delay-150"><defs><linearGradient id="gradient"><stop offset="5%" stop-color="#e9b81d66"></stop><stop offset="95%" stop-color="#0693e366"></stop></linearGradient></defs><path d="M 0,400 C 0,400 0,100 0,100 C 28.088997253029888,82.04008118135386 56.177994506059775,64.0801623627077 97,66 C 137.82200549394022,67.9198376372923 191.37701922879074,89.71943173052304 230,109 C 268.62298077120926,128.28056826947696 292.31392857877717,145.04211071520012 325,135 C 357.68607142122283,124.95788928479986 399.36726645610065,88.11212540867635 438,74 C 476.63273354389935,59.887874591323644 512.2170055968205,68.50938765009442 552,78 C 591.7829944031795,87.49061234990558 635.7647111566175,97.850323990946 672,109 C 708.2352888433825,120.149676009054 736.724149776709,132.0893163861216 770,133 C 803.275850223291,133.9106836138784 841.3386897365463,123.79241046456758 875,107 C 908.6613102634537,90.20758953543242 937.9210912771059,66.7410417556081 977,67 C 1016.0789087228941,67.2589582443919 1064.9769451550296,91.24342251300004 1107,106 C 1149.0230548449704,120.75657748699996 1184.1711281027756,126.28526819239174 1222,124 C 1259.8288718972244,121.71473180760826 1300.3385424338685,111.615504717433 1336,114 C 1371.6614575661315,116.384495282567 1402.4747021617518,131.25271293787628 1419,131 C 1435.5252978382482,130.74728706212372 1437.762648919124,115.37364353106186 1440,100 C 1440,100 1440,400 1440,400 Z" stroke="none" stroke-width="0" fill="url(#gradient)" class="transition-all duration-300 ease-in-out delay-150"></path><defs><linearGradient id="gradient"><stop offset="5%" stop-color="#e9b81d88"></stop><stop offset="95%" stop-color="#0693e388"></stop></linearGradient></defs><path d="M 0,400 C 0,400 0,200 0,200 C 33.95474224007175,215.58324740677108 67.9094844801435,231.1664948135422 106,230 C 144.0905155198565,228.8335051864578 186.3168043194977,210.91726815260233 223,211 C 259.6831956805023,211.08273184739767 290.82329824186553,229.16443257604857 329,218 C 367.17670175813447,206.83556742395143 412.39000271304,166.42500154320336 449,166 C 485.60999728696,165.57499845679664 513.6166909059741,205.13556125113797 551,213 C 588.3833090940259,220.86443874886203 635.1432336630633,197.0327534522447 677,190 C 718.8567663369367,182.9672465477553 755.8103744417726,192.73342493988324 787,203 C 818.1896255582274,213.26657506011676 843.6152685698462,224.03354678822248 876,221 C 908.3847314301538,217.96645321177752 947.7285512788419,201.13238790722684 988,188 C 1028.271448721158,174.86761209277316 1069.4705263147853,165.43690158287015 1111,175 C 1152.5294736852147,184.56309841712985 1194.3893434620163,213.12000576129256 1224,221 C 1253.6106565379837,228.87999423870744 1270.9720998371492,216.0830753719597 1312,215 C 1353.0279001628508,213.9169246280403 1417.7222571893858,224.54769275086863 1443,224 C 1468.2777428106142,223.45230724913137 1454.138871405307,211.72615362456568 1440,200 C 1440,200 1440,400 1440,400 Z" stroke="none" stroke-width="0" fill="url(#gradient)" class="transition-all duration-300 ease-in-out delay-150"></path><defs><linearGradient id="gradient"><stop offset="5%" stop-color="#e9b81dff"></stop><stop offset="95%" stop-color="#0693e3ff"></stop></linearGradient></defs><path d="M 0,400 C 0,400 0,300 0,300 C 31.313307890804154,287.8583887103739 62.62661578160831,275.7167774207478 100,270 C 137.3733842183917,264.2832225792522 180.8068447643709,264.99127902738263 216,270 C 251.1931552356291,275.00872097261737 278.1460051609081,284.31810646972167 312,302 C 345.8539948390919,319.68189353027833 386.6091345919968,345.7362950937307 428,334 C 469.3908654080032,322.2637049062693 511.41745647110463,272.7367131553556 548,270 C 584.5825435288954,267.2632868446444 615.7210395235842,311.31685228484713 652,330 C 688.2789604764158,348.68314771515287 729.6983854345588,341.99587770525596 768,333 C 806.3016145654412,324.00412229474404 841.4854187381814,312.6996368941292 882,300 C 922.5145812618186,287.3003631058708 968.3599396127154,273.2055747182274 1003,277 C 1037.6400603872846,280.7944252817726 1061.0748228109574,302.4780642329612 1101,312 C 1140.9251771890426,321.5219357670388 1197.3407691434545,318.88216834992795 1231,315 C 1264.6592308565455,311.11783165007205 1275.562100615224,305.9932623673271 1318,296 C 1360.437899384776,286.0067376326729 1434.4108283956505,271.1447821807637 1460,271 C 1485.5891716043495,270.8552178192363 1462.7945858021749,285.42760890961813 1440,300 C 1440,300 1440,400 1440,400 Z" stroke="none" stroke-width="0" fill="url(#gradient)" class="transition-all duration-300 ease-in-out delay-150"></path></svg>
