<svg height="100%" width="100%" id="svg" viewBox="0 0 1440 400" xmlns="http://www.w3.org/2000/svg" class="transition duration-300 ease-in-out delay-150"><defs><linearGradient id="gradient"><stop offset="5%" stop-color="#424e5466"></stop><stop offset="95%" stop-color="#ee9b1466"></stop></linearGradient></defs><path d="M 0,400 C 0,400 0,100 0,100 C 27.046540840054945,101.9931826214229 54.09308168010989,103.98636524284582 76,108 C 97.90691831989011,112.01363475715418 114.67421411961541,118.04772165003968 139,124 C 163.3257858803846,129.95227834996032 195.21006184142848,135.8227481569955 220,121 C 244.78993815857152,106.17725184300451 262.4855385146706,70.6612857219784 284,62 C 305.5144614853294,53.338714278021605 330.8477840998889,71.53210895509093 354,74 C 377.1522159001111,76.46789104490907 398.12332508577407,63.21027845765785 427,64 C 455.87667491422593,64.78972154234215 492.6589155570149,79.62677721427765 516,87 C 539.3410844429851,94.37322278572235 549.2410126861662,94.28261268523153 570,91 C 590.7589873138338,87.71738731476847 622.3770336983202,81.24277204479617 651,79 C 679.6229663016798,76.75722795520383 705.250852520553,78.74629913558383 729,88 C 752.749147479447,97.25370086441617 774.6195562194678,113.77203141286859 800,125 C 825.3804437805322,136.22796858713141 854.270922601576,142.1655752129418 874,130 C 893.729077398424,117.83442478705818 904.2967533742283,87.56566773536416 929,87 C 953.7032466257717,86.43433226463584 992.5420639015108,115.57175384560153 1018,129 C 1043.4579360984892,142.42824615439847 1055.5349910197285,140.14731688222966 1072,130 C 1088.4650089802715,119.85268311777034 1109.3179720195753,101.83897862547988 1140,103 C 1170.6820279804247,104.16102137452012 1211.1931209019697,124.49676861585073 1236,131 C 1260.8068790980303,137.50323138414927 1269.9095443725466,130.1739469111171 1293,130 C 1316.0904556274534,129.8260530888829 1353.1687016078438,136.80744373968082 1380,133 C 1406.8312983921562,129.19255626031918 1423.415649196078,114.59627813015959 1440,100 C 1440,100 1440,400 1440,400 Z" stroke="none" stroke-width="0" fill="url(#gradient)" class="transition-all duration-300 ease-in-out delay-150"></path><defs><linearGradient id="gradient"><stop offset="5%" stop-color="#424e5488"></stop><stop offset="95%" stop-color="#ee9b1488"></stop></linearGradient></defs><path d="M 0,400 C 0,400 0,200 0,200 C 18.36107068340469,202.97369831130328 36.72214136680938,205.9473966226066 59,197 C 81.27785863319062,188.0526033773934 107.47250521616715,167.18411182087692 133,166 C 158.52749478383285,164.81588817912308 183.387837768522,183.31615609388572 209,200 C 234.612162231478,216.68384390611428 260.97614370974486,231.55126380358027 284,228 C 307.02385629025514,224.44873619641973 326.7075873924986,202.47878869179328 353,201 C 379.2924126075014,199.52121130820672 412.19350672026053,218.5335814292466 440,227 C 467.80649327973947,235.4664185707534 490.5183857264594,233.38688559122042 514,222 C 537.4816142735406,210.61311440877958 561.732950373902,189.91887620587184 580,186 C 598.267049626098,182.08112379412816 610.5498127779327,194.93760958529222 635,199 C 659.4501872220673,203.06239041470778 696.0677985143673,198.33068545295936 725,204 C 753.9322014856327,209.66931454704064 775.1789931645982,225.73964860287035 799,225 C 822.8210068354018,224.26035139712965 849.2162288272401,206.7107201355593 868,187 C 886.7837711727599,167.2892798644407 897.9560915264419,145.41747085489237 923,163 C 948.0439084735581,180.58252914510763 986.9594050669925,237.61939644487117 1011,236 C 1035.0405949330075,234.38060355512883 1044.2062882055875,174.10494336562297 1070,163 C 1095.7937117944125,151.89505663437703 1138.2154421106577,189.96083009263694 1165,195 C 1191.7845578893423,200.03916990736306 1202.9319433517824,172.05173626382924 1221,169 C 1239.0680566482176,165.94826373617076 1264.0567844822124,187.83222485204595 1289,193 C 1313.9432155177876,198.16777514795405 1338.8409187193677,186.61936432798686 1364,185 C 1389.1590812806323,183.38063567201314 1414.5795406403163,191.69031783600656 1440,200 C 1440,200 1440,400 1440,400 Z" stroke="none" stroke-width="0" fill="url(#gradient)" class="transition-all duration-300 ease-in-out delay-150"></path><defs><linearGradient id="gradient"><stop offset="5%" stop-color="#424e54ff"></stop><stop offset="95%" stop-color="#ee9b14ff"></stop></linearGradient></defs><path d="M 0,400 C 0,400 0,300 0,300 C 26.300989807515876,291.53525687215586 52.60197961503175,283.07051374431165 72,291 C 91.39802038496825,298.92948625568835 103.89307134738888,323.2532018949092 131,326 C 158.10692865261112,328.7467981050908 199.82573499541274,309.9166786760517 224,297 C 248.17426500458726,284.0833213239483 254.80398867096017,277.08008340088423 275,282 C 295.19601132903983,286.91991659911577 328.9583103207466,303.7629877204112 354,300 C 379.0416896792534,296.2370122795888 395.3627700460537,271.86796571747067 422,272 C 448.6372299539463,272.13203428252933 485.5906094950386,296.765149409706 511,300 C 536.4093905049614,303.234850590294 550.274791973792,285.0714366437053 572,274 C 593.725208026208,262.9285633562947 623.3102226097928,258.9491040154727 647,275 C 670.6897773902072,291.0508959845273 688.4843175870365,327.1321472944038 712,323 C 735.5156824129635,318.8678527055962 764.7525070420616,274.5223068069122 792,262 C 819.2474929579384,249.4776931930878 844.5056542447174,268.7786254779474 870,286 C 895.4943457552826,303.2213745220526 921.2248759790687,318.36319128129827 947,323 C 972.7751240209313,327.63680871870173 998.5948418390078,321.7686093968596 1020,310 C 1041.4051581609922,298.2313906031404 1058.3957566648994,280.5623711312634 1078,279 C 1097.6042433351006,277.4376288687366 1119.8221315013943,291.9819060780869 1148,307 C 1176.1778684986057,322.0180939219131 1210.3157173295233,337.5100045563891 1237,334 C 1263.6842826704767,330.4899954436109 1282.914999180513,307.9780756963567 1304,292 C 1325.085000819487,276.0219243036433 1348.024285948425,266.57769265818376 1371,269 C 1393.975714051575,271.42230734181624 1416.9878570257874,285.7111536709081 1440,300 C 1440,300 1440,400 1440,400 Z" stroke="none" stroke-width="0" fill="url(#gradient)" class="transition-all duration-300 ease-in-out delay-150"></path></svg>
