<svg height="100%" width="100%" id="svg" viewBox="0 0 1440 400" xmlns="http://www.w3.org/2000/svg" class="transition duration-300 ease-in-out delay-150"><defs><linearGradient id="gradient"><stop offset="5%" stop-color="#0088f266"></stop><stop offset="95%" stop-color="#80bde066"></stop></linearGradient></defs><path d="M 0,400 C 0,400 0,100 0,100 C 27.41057791542155,119.5060799853747 54.8211558308431,139.0121599707494 82,129 C 109.1788441691569,118.9878400292506 136.12595459204914,79.45744010237713 162,70 C 187.87404540795086,60.542559897622866 212.67502580096033,81.15807961974208 246,82 C 279.3249741990397,82.84192038025792 321.17394220410955,63.91024141865448 354,70 C 386.82605779589045,76.08975858134552 410.6292053826017,107.20095470564003 434,105 C 457.3707946173983,102.79904529435997 480.30923626548383,67.28593975878539 510,72 C 539.6907637345162,76.71406024121461 576.1338495554626,121.6552862592184 605,123 C 633.8661504445374,124.3447137407816 655.155365512666,82.09291520434104 678,73 C 700.844634487334,63.90708479565897 725.2446883938735,87.97305292341746 754,93 C 782.7553116061265,98.02694707658254 815.8658809118396,84.01487310198911 847,87 C 878.1341190881604,89.98512689801089 907.2917879587675,109.96745466862609 938,122 C 968.7082120412325,134.0325453313739 1000.9669672530911,138.11530822350656 1026,131 C 1051.033032746909,123.88469177649344 1068.840343028868,105.5713124373477 1094,108 C 1119.159656971132,110.4286875626523 1151.6716606314376,133.59944202710267 1185,134 C 1218.3283393685624,134.40055797289733 1252.4730144453822,112.0309194542416 1281,99 C 1309.5269855546178,85.9690805457584 1332.4362815870336,82.27688015593097 1358,84 C 1383.5637184129664,85.72311984406903 1411.7818592064832,92.86155992203452 1440,100 C 1440,100 1440,400 1440,400 Z" stroke="none" stroke-width="0" fill="url(#gradient)" class="transition-all duration-300 ease-in-out delay-150"></path><defs><linearGradient id="gradient"><stop offset="5%" stop-color="#0088f288"></stop><stop offset="95%" stop-color="#80bde088"></stop></linearGradient></defs><path d="M 0,400 C 0,400 0,200 0,200 C 29.939727705429718,196.86886186396748 59.879455410859435,193.737723727935 90,201 C 120.12054458914056,208.262276272065 150.42190606199196,225.91796695222757 177,215 C 203.57809393800804,204.08203304777243 226.4329203411727,164.59040846315472 250,169 C 273.5670796588273,173.40959153684528 297.8464125733174,221.7203991951535 329,221 C 360.1535874266826,220.2796008048465 398.18142936555785,170.52799475623138 429,164 C 459.81857063444215,157.47200524376862 483.427869964451,194.167621779921 513,200 C 542.572130035549,205.832378220079 578.1070907766382,180.80151812408457 605,173 C 631.8929092233618,165.19848187591543 650.1437669289961,174.62630572374073 675,180 C 699.8562330710039,185.37369427625927 731.3178415073775,186.6932589809525 760,180 C 788.6821584926225,173.3067410190475 814.5848670414945,158.60065835244922 848,170 C 881.4151329585055,181.39934164755078 922.3426903266444,218.90410760925053 946,232 C 969.6573096733556,245.09589239074947 976.044371651928,233.78291121054872 1003,218 C 1029.955628348072,202.21708878945128 1077.4798230656436,181.96424754855462 1107,176 C 1136.5201769343564,170.03575245144538 1148.0363360854976,178.36009859523276 1172,186 C 1195.9636639145024,193.63990140476724 1232.3748325923661,200.59535807051424 1266,202 C 1299.6251674076339,203.40464192948576 1330.464333545038,199.2584691227102 1359,198 C 1387.535666454962,196.7415308772898 1413.7678332274809,198.3707654386449 1440,200 C 1440,200 1440,400 1440,400 Z" stroke="none" stroke-width="0" fill="url(#gradient)" class="transition-all duration-300 ease-in-out delay-150"></path><defs><linearGradient id="gradient"><stop offset="5%" stop-color="#0088f2ff"></stop><stop offset="95%" stop-color="#80bde0ff"></stop></linearGradient></defs><path d="M 0,400 C 0,400 0,300 0,300 C 22.98004252233644,302.7454606720437 45.96008504467288,305.4909213440874 74,303 C 102.03991495532712,300.5090786559126 135.1397023436449,292.78177529569416 168,299 C 200.8602976563551,305.21822470430584 233.4811055807475,325.381977473136 259,321 C 284.5188944192525,316.618022526864 302.9358753333651,287.6903148117621 330,279 C 357.0641246666349,270.3096851882379 392.77539308579185,281.8567632798156 423,287 C 453.22460691420815,292.1432367201844 477.9625523234678,290.8826320689755 502,293 C 526.0374476765322,295.1173679310245 549.374397620337,300.6127084442824 578,307 C 606.625602379663,313.3872915557176 640.539857195184,320.6665341538948 672,311 C 703.460142804816,301.3334658461052 732.4661735989267,274.7211549401385 762,267 C 791.5338264010733,259.2788450598615 821.5954484091094,270.4488460855514 851,284 C 880.4045515908906,297.5511539144486 909.1520327646358,313.4834607176557 939,321 C 968.8479672353642,328.5165392823443 999.7964205323478,327.6173110438258 1027,317 C 1054.2035794676522,306.3826889561742 1077.662285105973,286.0472951070411 1106,291 C 1134.337714894027,295.9527048929589 1167.5544390437597,326.1935085280096 1193,319 C 1218.4455609562403,311.8064914719904 1236.1199587189878,267.17867078092047 1259,264 C 1281.8800412810122,260.82132921907953 1309.9657260802892,299.0918083483084 1341,312 C 1372.0342739197108,324.9081916516916 1406.0171369598554,312.4540958258458 1440,300 C 1440,300 1440,400 1440,400 Z" stroke="none" stroke-width="0" fill="url(#gradient)" class="transition-all duration-300 ease-in-out delay-150"></path></svg>
