<svg height="100%" width="100%" id="svg" viewBox="0 0 1440 400" xmlns="http://www.w3.org/2000/svg" class="transition duration-300 ease-in-out delay-150"><defs><linearGradient id="gradient"><stop offset="5%" stop-color="#4d7e9c66"></stop><stop offset="95%" stop-color="#00375f66"></stop></linearGradient></defs><path d="M 0,400 C 0,400 0,100 0,100 C 28.545258907743154,122.69347516705331 57.09051781548631,145.38695033410661 82,136 C 106.90948218451369,126.61304966589339 128.18318764579794,85.14567383062683 153,71 C 177.81681235420206,56.85432616937317 206.17673160132188,70.0303543433861 241,75 C 275.8232683986781,79.9696456566139 317.1098859489146,76.73290879582878 344,77 C 370.8901140510854,77.26709120417122 383.38372460301974,81.03801047329881 411,88 C 438.61627539698026,94.96198952670119 481.3552156390066,105.11504931097596 515,103 C 548.6447843609934,100.88495068902404 573.1954128409541,86.50179228279728 594,76 C 614.8045871590459,65.49820771720272 631.8631329971772,58.87778155783492 662,70 C 692.1368670028228,81.12221844216508 735.3520551703374,109.98708148586306 769,126 C 802.6479448296626,142.01291851413694 826.728646321473,145.17389249871277 856,136 C 885.271353678527,126.82610750128723 919.7333595437705,105.31734851928582 945,96 C 970.2666404562295,86.68265148071418 986.3379155034456,89.556713424144 1010,87 C 1033.6620844965544,84.443286575856 1064.914978442447,76.45579778413821 1100,69 C 1135.085021557553,61.544202215861795 1174.0021707267667,54.62009543930316 1200,65 C 1225.9978292732333,75.37990456069684 1239.076338650486,103.06382045864913 1262,110 C 1284.923661349514,116.93617954135087 1317.6924746712896,103.12462272610023 1349,98 C 1380.3075253287104,92.87537727389977 1410.1537626643553,96.43768863694989 1440,100 C 1440,100 1440,400 1440,400 Z" stroke="none" stroke-width="0" fill="url(#gradient)" class="transition-all duration-300 ease-in-out delay-150"></path><defs><linearGradient id="gradient"><stop offset="5%" stop-color="#4d7e9c88"></stop><stop offset="95%" stop-color="#00375f88"></stop></linearGradient></defs><path d="M 0,400 C 0,400 0,200 0,200 C 35.81916728794753,185.81915657930634 71.63833457589506,171.63831315861268 98,169 C 124.36166542410494,166.36168684138732 141.2658289843673,175.26590394485558 168,182 C 194.7341710156327,188.73409605514442 231.29834948663586,193.29807106196492 259,188 C 286.70165051336414,182.70192893803508 305.5407730690892,167.54181180728474 332,175 C 358.4592269309108,182.45818819271526 392.5385582370075,212.53468170889613 423,221 C 453.4614417629925,229.46531829110387 480.3049939828808,216.31946135713065 508,207 C 535.6950060171192,197.68053864286935 564.2414658314697,192.18747286258125 590,199 C 615.7585341685303,205.81252713741875 638.7291426912408,224.9306471925443 664,222 C 689.2708573087592,219.0693528074557 716.8419634035674,194.08993836724136 750,179 C 783.1580365964326,163.91006163275864 821.9030036944897,158.70959933849016 848,163 C 874.0969963055103,167.29040066150984 887.5460218184736,181.07166427879807 919,195 C 950.4539781815264,208.92833572120193 999.9129090316155,223.00374354631762 1028,224 C 1056.0870909683845,224.99625645368238 1062.8023420550644,212.9133615359315 1087,203 C 1111.1976579449356,193.0866384640685 1152.877722748127,185.3428103099565 1190,188 C 1227.122277251873,190.6571896900435 1259.6867669524274,203.71539722424248 1284,203 C 1308.3132330475726,202.28460277575752 1324.3752094421636,187.79560079307356 1349,185 C 1373.6247905578364,182.20439920692644 1406.8123952789183,191.10219960346322 1440,200 C 1440,200 1440,400 1440,400 Z" stroke="none" stroke-width="0" fill="url(#gradient)" class="transition-all duration-300 ease-in-out delay-150"></path><defs><linearGradient id="gradient"><stop offset="5%" stop-color="#4d7e9cff"></stop><stop offset="95%" stop-color="#00375fff"></stop></linearGradient></defs><path d="M 0,400 C 0,400 0,300 0,300 C 29.493840444964768,286.59165716936127 58.987680889929536,273.1833143387226 87,278 C 115.01231911007046,282.8166856612774 141.54311688524658,305.85839981447083 172,307 C 202.45688311475342,308.14160018552917 236.8398515690842,287.38308640339426 264,276 C 291.1601484309158,264.61691359660574 311.09747683841664,262.60925457195196 334,279 C 356.90252316158336,295.39074542804804 382.77024107724935,330.1798953087978 412,334 C 441.22975892275065,337.8201046912022 473.821558852586,310.67116419285657 506,309 C 538.178441147414,307.32883580714343 569.9435235124067,331.13544791977563 595,326 C 620.0564764875933,320.86455208022437 638.4043470977872,286.7870441280408 665,275 C 691.5956529022128,263.2129558719592 726.4390880964448,273.71637556806104 760,281 C 793.5609119035552,288.28362443193896 825.8393005164334,292.347453599715 857,305 C 888.1606994835666,317.652546400285 918.203709837822,338.89381003307915 941,324 C 963.796290162178,309.10618996692085 979.3458601322786,258.0773062679684 1008,264 C 1036.6541398677214,269.9226937320316 1078.4128496330636,332.79696489504715 1106,333 C 1133.5871503669364,333.20303510495285 1147.0027413354674,270.734834151843 1175,270 C 1202.9972586645326,269.265165848157 1245.5761850250663,330.26369849758066 1278,334 C 1310.4238149749337,337.73630150241934 1332.6925185642667,284.21037185783405 1358,269 C 1383.3074814357333,253.78962814216592 1411.6537407178666,276.894814071083 1440,300 C 1440,300 1440,400 1440,400 Z" stroke="none" stroke-width="0" fill="url(#gradient)" class="transition-all duration-300 ease-in-out delay-150"></path></svg>
