<svg height="100%" width="100%" id="svg" viewBox="0 0 1440 400" xmlns="http://www.w3.org/2000/svg" class="transition duration-300 ease-in-out delay-150"><defs><linearGradient id="gradient"><stop offset="5%" stop-color="#fff97a66"></stop><stop offset="95%" stop-color="#7bdcb566"></stop></linearGradient></defs><path d="M 0,400 C 0,400 0,100 0,100 C 31.831330368397197,103.12757750759337 63.66266073679439,106.25515501518673 87,96 C 110.3373392632056,85.74484498481327 125.1806874212196,62.106957446846394 156,71 C 186.8193125787804,79.8930425531536 233.61458957832718,121.31701519742766 269,121 C 304.3854104216728,120.68298480257234 328.3609542654717,78.62498176344292 348,68 C 367.6390457345283,57.375018236557075 382.94159335978617,78.18305774880065 410,100 C 437.05840664021383,121.81694225119935 475.87267229538327,144.64278724135448 505,137 C 534.1273277046167,129.35721275864552 553.5677174586809,91.24579328578146 582,83 C 610.4322825413191,74.75420671421854 647.8564578698931,96.37403961551968 681,102 C 714.1435421301069,107.62596038448032 743.0064510617466,97.25804825213976 772,105 C 800.9935489382534,112.74195174786024 830.1177378831204,138.5937673759213 858,130 C 885.8822621168796,121.4062326240787 912.5225974057723,78.366882244175 940,72 C 967.4774025942277,65.633117755825 995.7918724937902,95.9387036473787 1020,114 C 1044.2081275062098,132.0612963526213 1064.3099126190673,137.87830316631013 1095,134 C 1125.6900873809327,130.12169683368987 1166.9684770299407,116.54808368738078 1194,108 C 1221.0315229700593,99.45191631261922 1233.8161792611697,95.9293620841667 1261,102 C 1288.1838207388303,108.0706379158333 1329.76680592538,123.73446797595237 1362,125 C 1394.23319407462,126.26553202404763 1417.11659703731,113.13276601202381 1440,100 C 1440,100 1440,400 1440,400 Z" stroke="none" stroke-width="0" fill="url(#gradient)" class="transition-all duration-300 ease-in-out delay-150"></path><defs><linearGradient id="gradient"><stop offset="5%" stop-color="#fff97a88"></stop><stop offset="95%" stop-color="#7bdcb588"></stop></linearGradient></defs><path d="M 0,400 C 0,400 0,200 0,200 C 23.23712709703956,192.73624300925206 46.47425419407912,185.4724860185041 78,181 C 109.52574580592088,176.5275139814959 149.34011032072303,174.84629893523558 184,179 C 218.65988967927697,183.15370106476442 248.1653045230288,193.14231824055366 268,187 C 287.8346954769712,180.85768175944634 297.9986715871619,158.58442810254968 323,167 C 348.0013284128381,175.41557189745032 387.84000912832363,214.51996934924748 423,217 C 458.15999087167637,219.48003065075252 488.6412918995436,185.33569450046045 516,182 C 543.3587081004564,178.66430549953955 567.594823273502,206.13725264891067 595,216 C 622.405176726498,225.86274735108933 652.9794150064484,218.11529490389682 684,215 C 715.0205849935516,211.88470509610318 746.4875167007043,213.40156773550214 777,200 C 807.5124832992957,186.59843226449786 837.0705181907343,158.2784341540946 859,163 C 880.9294818092657,167.7215658459054 895.2304105363581,205.4846956481194 926,219 C 956.7695894636419,232.5153043518806 1004.007839663833,221.78278325342765 1031,207 C 1057.992160336167,192.21721674657235 1064.73823080831,173.38417133816995 1089,178 C 1113.26176919169,182.61582866183005 1155.039237102927,210.68053139389258 1192,226 C 1228.960762897073,241.31946860610742 1261.104820779981,243.8937030862597 1285,233 C 1308.895179220019,222.1062969137403 1324.5414797771482,197.74465626106866 1349,190 C 1373.4585202228518,182.25534373893134 1406.729260111426,191.12767186946567 1440,200 C 1440,200 1440,400 1440,400 Z" stroke="none" stroke-width="0" fill="url(#gradient)" class="transition-all duration-300 ease-in-out delay-150"></path><defs><linearGradient id="gradient"><stop offset="5%" stop-color="#fff97aff"></stop><stop offset="95%" stop-color="#7bdcb5ff"></stop></linearGradient></defs><path d="M 0,400 C 0,400 0,300 0,300 C 27.867462414302913,311.13843437368075 55.73492482860583,322.27686874736145 83,313 C 110.26507517139417,303.72313125263855 136.92776309987963,274.0309593842349 163,267 C 189.07223690012037,259.9690406157651 214.55402277187574,275.59929371569893 243,293 C 271.44597722812426,310.40070628430107 302.8561458126176,329.57186575296913 332,333 C 361.1438541873824,336.42813424703087 388.0213939776538,324.1132432724244 414,308 C 439.9786060223462,291.8867567275756 465.05827827676717,271.97516115733305 498,280 C 530.9417217232328,288.02483884266695 571.7454929152775,323.98611209824344 600,322 C 628.2545070847225,320.01388790175656 643.9597500621232,280.08039044969325 666,266 C 688.0402499378768,251.91960955030677 716.4155068362292,263.69232610298354 748,280 C 779.5844931637708,296.30767389701646 814.3782225929602,317.1503051383726 846,319 C 877.6217774070398,320.8496948616274 906.0716027919299,303.70645334352605 938,292 C 969.9283972080701,280.29354665647395 1005.3353662393201,274.023881487523 1031,273 C 1056.6646337606799,271.976118512477 1072.58693225079,276.19802070638195 1100,275 C 1127.41306774921,273.80197929361805 1166.31690475752,267.18403568694913 1196,265 C 1225.68309524248,262.81596431305087 1246.1454487191295,265.0658365458214 1272,265 C 1297.8545512808705,264.9341634541786 1329.101300365963,262.55261812976534 1358,268 C 1386.898699634037,273.44738187023466 1413.4493498170186,286.72369093511736 1440,300 C 1440,300 1440,400 1440,400 Z" stroke="none" stroke-width="0" fill="url(#gradient)" class="transition-all duration-300 ease-in-out delay-150"></path></svg>
