<svg height="100%" width="100%" id="svg" viewBox="0 0 1440 400" xmlns="http://www.w3.org/2000/svg" class="transition duration-300 ease-in-out delay-150"><defs><linearGradient id="gradient"><stop offset="5%" stop-color="#005eab66"></stop><stop offset="95%" stop-color="#00318066"></stop></linearGradient></defs><path d="M 0,400 C 0,400 0,100 0,100 C 33.032148216489915,119.41018815886804 66.06429643297983,138.82037631773608 98,133 C 129.93570356702017,127.17962368226394 160.77496248457058,96.12868288792377 193,95 C 225.22503751542942,93.87131711207623 258.8358536287378,122.66489213056883 285,127 C 311.1641463712622,131.33510786943117 329.88162300047827,111.211748589801 361,107 C 392.11837699952173,102.788251410199 435.63765436934915,114.48811351022717 466,104 C 496.36234563065085,93.51188648977283 513.5677595221255,60.83579736929042 537,66 C 560.4322404778745,71.16420263070958 590.091307542149,114.16869701261115 623,129 C 655.908692457851,143.83130298738885 692.0670103092783,130.48941458026508 725,116 C 757.9329896907217,101.51058541973492 787.6406512207375,85.8736446663285 812,78 C 836.3593487792625,70.1263553336715 855.3703848077715,70.01600675442091 884,71 C 912.6296151922285,71.98399324557909 950.8778095481766,74.06232831598788 984,77 C 1017.1221904518234,79.93767168401212 1045.1183769995218,83.73467998162755 1075,87 C 1104.8816230004782,90.26532001837245 1136.6486824537367,92.9989517575019 1164,101 C 1191.3513175462633,109.0010482424981 1214.2868931855323,122.26951298836485 1243,114 C 1271.7131068144677,105.73048701163515 1306.2037448041335,75.92299628903862 1340,70 C 1373.7962551958665,64.07700371096138 1406.8981275979331,82.03850185548069 1440,100 C 1440,100 1440,400 1440,400 Z" stroke="none" stroke-width="0" fill="url(#gradient)" class="transition-all duration-300 ease-in-out delay-150"></path><defs><linearGradient id="gradient"><stop offset="5%" stop-color="#005eab88"></stop><stop offset="95%" stop-color="#00318088"></stop></linearGradient></defs><path d="M 0,400 C 0,400 0,200 0,200 C 27.77417273909321,179.05709889249553 55.54834547818642,158.11419778499106 81,165 C 106.45165452181358,171.88580221500894 129.5807908263475,206.6003077525313 164,215 C 198.4192091736525,223.3996922474687 244.12849121642347,205.48457120488374 276,204 C 307.87150878357653,202.51542879511626 325.9052443079586,217.46140742793372 352,211 C 378.0947556920414,204.53859257206628 412.2505315517422,176.6697990833814 445,172 C 477.7494684482578,167.3302009166186 509.09262948507296,185.8593962385406 536,186 C 562.907370514927,186.1406037614594 585.378950507966,167.89261596245618 613,163 C 640.621049492034,158.10738403754382 673.3915684830632,166.57013991163473 708,175 C 742.6084315169368,183.42986008836527 779.0547755597808,191.82682439100483 810,188 C 840.9452244402192,184.17317560899517 866.3893292778137,168.122562524346 890,179 C 913.6106707221863,189.877437475654 935.3879073289647,227.68292551161122 973,227 C 1010.6120926710353,226.31707448838878 1064.059041406327,187.14573542920914 1094,181 C 1123.940958593673,174.85426457079086 1130.3759270457267,201.7341327715522 1156,207 C 1181.6240729542733,212.2658672284478 1226.4372504107657,195.91773348458207 1265,188 C 1303.5627495892343,180.08226651541793 1335.87507131121,180.5949332901194 1364,184 C 1392.12492868879,187.4050667098806 1416.062464344395,193.7025333549403 1440,200 C 1440,200 1440,400 1440,400 Z" stroke="none" stroke-width="0" fill="url(#gradient)" class="transition-all duration-300 ease-in-out delay-150"></path><defs><linearGradient id="gradient"><stop offset="5%" stop-color="#005eabff"></stop><stop offset="95%" stop-color="#003180ff"></stop></linearGradient></defs><path d="M 0,400 C 0,400 0,300 0,300 C 25.493413051354324,299.81468958873165 50.98682610270865,299.6293791774633 86,303 C 121.01317389729135,306.3706208225367 165.54610864051972,313.2971728788784 193,313 C 220.45389135948028,312.7028271211216 230.82873933521245,305.1819293070229 258,293 C 285.17126066478755,280.8180706929771 329.13893401863055,263.9751098930298 366,268 C 402.86106598136945,272.0248901069702 432.6155245902653,296.91763112085766 463,295 C 493.3844754097347,293.08236887914234 524.3989676203082,264.3543656235396 550,263 C 575.6010323796918,261.6456343764604 595.7886049285017,287.664906384984 626,307 C 656.2113950714983,326.335093615016 696.4466126656847,338.98600883652426 725,335 C 753.5533873343153,331.01399116347574 770.424944408759,310.3910582689188 796,306 C 821.575055591241,301.6089417310812 855.8536096992793,313.4497580878006 889,314 C 922.1463903007207,314.5502419121994 954.1606167941237,303.8099093798788 987,295 C 1019.8393832058763,286.1900906201212 1053.5039231242265,279.3106043926844 1086,284 C 1118.4960768757735,288.6893956073156 1149.8236907089702,304.9476730493836 1175,311 C 1200.1763092910298,317.0523269506164 1219.2013140398926,312.8987034097813 1246,314 C 1272.7986859601074,315.1012965902187 1307.3710531314593,321.457513311491 1341,320 C 1374.6289468685407,318.542486688509 1407.3144734342704,309.27124334425446 1440,300 C 1440,300 1440,400 1440,400 Z" stroke="none" stroke-width="0" fill="url(#gradient)" class="transition-all duration-300 ease-in-out delay-150"></path></svg>
