<svg height="100%" width="100%" id="svg" viewBox="0 0 1440 400" xmlns="http://www.w3.org/2000/svg" class="transition duration-300 ease-in-out delay-150"><defs><linearGradient id="gradient"><stop offset="5%" stop-color="#0058e866"></stop><stop offset="95%" stop-color="#26628766"></stop></linearGradient></defs><path d="M 0,400 C 0,400 0,100 0,100 C 19.768061644936658,102.67554146212866 39.536123289873316,105.35108292425733 66,104 C 92.46387671012668,102.64891707574267 125.6235684854434,97.27120976509936 155,98 C 184.3764315145566,98.72879023490064 209.969602768353,105.56407801534526 235,111 C 260.030397231647,116.43592198465474 284.4980204411446,120.47247817351963 314,112 C 343.5019795588554,103.52752182648037 378.03831546706886,82.54600929057621 405,87 C 431.96168453293114,91.45399070942379 451.3487176905799,121.34348466417553 472,119 C 492.6512823094201,116.65651533582447 514.5668137706117,82.0800520527217 545,71 C 575.4331862293883,59.91994794727831 614.3840272269734,72.3363071249377 648,85 C 681.6159727730266,97.6636928750623 709.8970773214946,110.57471944752746 729,108 C 748.1029226785054,105.42528055247254 758.027663487048,87.36481508495253 785,81 C 811.972336512952,74.63518491504747 855.9922687303132,79.96602021266246 885,89 C 914.0077312696868,98.03397978733754 928.003261591699,110.77110406439766 950,112 C 971.996738408301,113.22889593560234 1001.9946849028904,102.94956352974688 1030,109 C 1058.0053150971096,115.05043647025312 1084.0179987967392,137.4306418166148 1112,129 C 1139.9820012032608,120.5693581833852 1169.9333199101522,81.327869203794 1196,78 C 1222.0666800898478,74.672130796206 1244.2487215626516,107.2578813682093 1273,118 C 1301.7512784373484,128.7421186317907 1337.0717938392422,117.64060532336877 1366,111 C 1394.9282061607578,104.35939467663123 1417.464103080379,102.1796973383156 1440,100 C 1440,100 1440,400 1440,400 Z" stroke="none" stroke-width="0" fill="url(#gradient)" class="transition-all duration-300 ease-in-out delay-150"></path><defs><linearGradient id="gradient"><stop offset="5%" stop-color="#0058e888"></stop><stop offset="95%" stop-color="#26628788"></stop></linearGradient></defs><path d="M 0,400 C 0,400 0,200 0,200 C 23.721233241793357,216.00269514259298 47.44246648358671,232.00539028518594 73,228 C 98.55753351641329,223.99460971481406 125.95136730744653,199.9811340018492 153,194 C 180.04863269255347,188.0188659981508 206.75206428662716,200.07007370741732 236,206 C 265.24793571337284,211.92992629258268 297.04037554604497,211.73857116848163 321,217 C 344.95962445395503,222.26142883151837 361.0864335291928,232.9756416186562 388,230 C 414.9135664708072,227.0243583813438 452.613890337184,210.3588623568935 486,208 C 519.386109662816,205.6411376431065 548.458005122071,217.5889089537699 571,217 C 593.541994877929,216.4110910462301 609.5540891745322,203.28550182802687 637,205 C 664.4459108254678,206.71449817197313 703.3256381798002,223.26908373412257 732,232 C 760.6743618201998,240.73091626587743 779.1433581062669,241.6381632354828 805,232 C 830.8566418937331,222.3618367645172 864.1009293951323,202.1782633239462 889,188 C 913.8990706048677,173.8217366760538 930.4529243132043,165.64878346873238 954,162 C 977.5470756867957,158.35121653126762 1008.0873733520502,159.2266028011243 1037,175 C 1065.9126266479498,190.7733971988757 1093.1975822785944,221.44480532677053 1118,222 C 1142.8024177214056,222.55519467322947 1165.1222975335725,192.99417589179347 1194,191 C 1222.8777024664275,189.00582410820653 1258.3132275871153,214.57849110605557 1290,216 C 1321.6867724128847,217.42150889394443 1349.624792117967,194.6918596839841 1374,188 C 1398.375207882033,181.3081403160159 1419.1876039410165,190.65407015800795 1440,200 C 1440,200 1440,400 1440,400 Z" stroke="none" stroke-width="0" fill="url(#gradient)" class="transition-all duration-300 ease-in-out delay-150"></path><defs><linearGradient id="gradient"><stop offset="5%" stop-color="#0058e8ff"></stop><stop offset="95%" stop-color="#266287ff"></stop></linearGradient></defs><path d="M 0,400 C 0,400 0,300 0,300 C 20.187655159477934,277.550020300015 40.37531031895587,255.10004060002996 67,264 C 93.62468968104413,272.89995939997004 126.68641388365444,313.1498578998951 160,327 C 193.31358611634556,340.8501421001049 226.87903414642648,328.3005278003895 252,318 C 277.1209658535735,307.6994721996105 293.7974495306395,299.648030898547 314,292 C 334.2025504693605,284.351969101453 357.93116773101565,277.1073486054223 390,276 C 422.06883226898435,274.8926513945777 462.4778795452978,279.9225746797638 488,275 C 513.5221204547022,270.0774253202362 524.1573140877931,255.20235267552255 546,263 C 567.8426859122069,270.79764732447745 600.8928641035295,301.2680146181461 636,306 C 671.1071358964705,310.7319853818539 708.2712294980886,289.725588851893 733,291 C 757.7287705019114,292.274411148107 770.0222179041161,315.829629974282 796,324 C 821.9777820958839,332.170370025718 861.6398988854465,324.95589125097894 891,309 C 920.3601011145535,293.04410874902106 939.4181865540978,268.34680502180237 964,265 C 988.5818134459022,261.65319497819763 1018.6873548981619,279.65688866181165 1047,277 C 1075.3126451018381,274.34311133818835 1101.832393853255,251.02564033095098 1123,262 C 1144.167606146745,272.974359669049 1159.9830696888184,318.2405500143843 1190,332 C 1220.0169303111816,345.7594499856157 1264.2353273914716,328.0121596115119 1291,314 C 1317.7646726085284,299.9878403884881 1327.0756207452937,289.71081153956806 1349,288 C 1370.9243792547063,286.28918846043194 1405.4621896273532,293.14459423021594 1440,300 C 1440,300 1440,400 1440,400 Z" stroke="none" stroke-width="0" fill="url(#gradient)" class="transition-all duration-300 ease-in-out delay-150"></path></svg>
