<svg height="100%" width="100%" id="svg" viewBox="0 0 1440 400" xmlns="http://www.w3.org/2000/svg" class="transition duration-300 ease-in-out delay-150"><defs><linearGradient id="gradient"><stop offset="5%" stop-color="#0693e366"></stop><stop offset="95%" stop-color="#00d08466"></stop></linearGradient></defs><path d="M 0,400 C 0,400 0,100 0,100 C 33.24961501020978,112.84327159488396 66.49923002041956,125.68654318976792 92,133 C 117.50076997958044,140.31345681023208 135.25269492853153,142.0970988358123 164,124 C 192.74730507146847,105.90290116418771 232.4899902654543,67.92506146698292 254,73 C 275.5100097345457,78.07493853301708 278.78734400965106,126.20265529625601 305,136 C 331.21265599034894,145.797344703744 380.36063369594143,117.26431734799303 414,102 C 447.63936630405857,86.73568265200697 465.7701212065831,84.7400753117719 491,89 C 516.2298787934169,93.2599246882281 548.5588814777266,103.77538140491937 571,99 C 593.4411185222734,94.22461859508063 605.9943528825106,74.15839906855065 630,81 C 654.0056471174894,87.84160093144935 689.4637069922308,121.59102232087804 721,127 C 752.5362930077692,132.40897767912196 780.150819148566,109.47751164793718 805,99 C 829.849180851434,88.52248835206282 851.9330164135054,90.49893108737317 877,102 C 902.0669835864946,113.50106891262683 930.1171151974125,134.5267640025702 960,127 C 989.8828848025875,119.47323599742982 1021.5985227968445,83.3940129023461 1047,68 C 1072.4014772031555,52.605987097653895 1091.4887936152102,57.89718438804539 1117,73 C 1142.5112063847898,88.10281561195461 1174.4463027423149,113.01724954547235 1200,119 C 1225.5536972576851,124.98275045452765 1244.7259954155306,112.03381743006513 1274,110 C 1303.2740045844694,107.96618256993487 1342.6497155955626,116.8474807342671 1372,117 C 1401.3502844044374,117.1525192657329 1420.6751422022187,108.57625963286645 1440,100 C 1440,100 1440,400 1440,400 Z" stroke="none" stroke-width="0" fill="url(#gradient)" class="transition-all duration-300 ease-in-out delay-150"></path><defs><linearGradient id="gradient"><stop offset="5%" stop-color="#0693e388"></stop><stop offset="95%" stop-color="#00d08488"></stop></linearGradient></defs><path d="M 0,400 C 0,400 0,200 0,200 C 28.858072299437296,200.25425754308577 57.71614459887459,200.50851508617157 87,209 C 116.28385540112541,217.49148491382843 145.99349390393894,234.22019719839952 172,223 C 198.00650609606106,211.77980280160048 220.30987978536973,172.61069612023041 247,168 C 273.69012021463027,163.38930387976959 304.7669869545822,193.33701832067877 334,208 C 363.2330130454178,222.66298167932123 390.6221723963016,222.04123059705444 413,227 C 435.3778276036984,231.95876940294556 452.74432346021143,242.49805929110354 478,232 C 503.25567653978857,221.50194070889646 536.4005337628527,189.96653223853139 564,182 C 591.5994662371473,174.03346776146861 613.653541488378,189.63581175477088 638,201 C 662.346458511622,212.36418824522912 688.9853002836354,219.49022074238505 720,223 C 751.0146997163646,226.50977925761495 786.4052573770801,226.40330527568906 810,213 C 833.5947426229199,199.59669472431094 845.3936702080439,172.8965581548587 873,169 C 900.6063297919561,165.1034418451413 944.0200617907442,184.0104621048762 971,194 C 997.9799382092558,203.9895378951238 1008.5260826289791,205.06159342563643 1034,198 C 1059.473917371021,190.93840657436357 1099.8756076933396,175.7431641925781 1128,178 C 1156.1243923066604,180.2568358074219 1171.9714865976616,199.96574980405123 1197,201 C 1222.0285134023384,202.03425019594877 1256.2384459160141,184.39383659121697 1283,178 C 1309.7615540839859,171.60616340878303 1329.0747297382816,176.45890383108085 1354,182 C 1378.9252702617184,187.54109616891915 1409.4626351308593,193.77054808445956 1440,200 C 1440,200 1440,400 1440,400 Z" stroke="none" stroke-width="0" fill="url(#gradient)" class="transition-all duration-300 ease-in-out delay-150"></path><defs><linearGradient id="gradient"><stop offset="5%" stop-color="#0693e3ff"></stop><stop offset="95%" stop-color="#00d084ff"></stop></linearGradient></defs><path d="M 0,400 C 0,400 0,300 0,300 C 20.892633657154065,315.1336731508884 41.78526731430813,330.26734630177685 72,326 C 102.21473268569187,321.73265369822315 141.7515643999216,298.06428794378104 173,293 C 204.2484356000784,287.93571205621896 227.20847508600536,301.475501923099 247,303 C 266.79152491399464,304.524498076901 283.41453525605687,294.03370436382306 307,295 C 330.58546474394313,295.96629563617694 361.1333838897672,308.38968062160865 389,305 C 416.8666161102328,301.61031937839135 442.0519291848743,282.40757314974246 474,275 C 505.9480708151257,267.59242685025754 544.6588993707355,271.9800267794216 574,282 C 603.3411006292645,292.0199732205784 623.3124733321836,307.6723197325709 649,313 C 674.6875266678164,318.3276802674291 706.0912073005303,313.33069429029473 729,298 C 751.9087926994697,282.66930570970527 766.3226974656953,257.00490310625014 791,265 C 815.6773025343047,272.99509689374986 850.6180028366883,314.64969328470465 883,329 C 915.3819971633117,343.35030671529535 945.2052911875513,330.39632375493136 973,329 C 1000.7947088124487,327.60367624506864 1026.560832413106,337.76501169556985 1050,336 C 1073.439167586894,334.23498830443015 1094.551379160024,320.5436294627893 1121,308 C 1147.448620839976,295.4563705372107 1179.2336509467978,284.06047045327296 1206,283 C 1232.7663490532022,281.93952954672704 1254.5140170527852,291.21448872411884 1282,301 C 1309.4859829472148,310.78551127588116 1342.7102808420611,321.08157465025175 1370,321 C 1397.2897191579389,320.91842534974825 1418.6448595789693,310.45921267487415 1440,300 C 1440,300 1440,400 1440,400 Z" stroke="none" stroke-width="0" fill="url(#gradient)" class="transition-all duration-300 ease-in-out delay-150"></path></svg>
