<svg height="100%" width="100%" id="svg" viewBox="0 0 1440 400" xmlns="http://www.w3.org/2000/svg" class="transition duration-300 ease-in-out delay-150"><defs><linearGradient id="gradient"><stop offset="5%" stop-color="#32424866"></stop><stop offset="95%" stop-color="#0b425866"></stop></linearGradient></defs><path d="M 0,400 C 0,400 0,100 0,100 C 36.212467386578346,84.86378127524343 72.42493477315669,69.72756255048685 94,65 C 115.57506522684331,60.27243744951314 122.5127282939516,65.95353107329602 146,62 C 169.4872717060484,58.04646892670398 209.52415205103694,44.458313156329055 244,64 C 278.47584794896306,83.54168684367094 307.39066350190063,136.21321630138775 330,136 C 352.60933649809937,135.78678369861225 368.9131939413605,82.68882163811998 395,69 C 421.0868060586395,55.31117836188002 456.9565607326573,81.03149714613234 486,92 C 515.0434392673427,102.96850285386766 537.2605631280102,99.1851897773507 561,102 C 584.7394368719898,104.8148102226493 610.0011867553017,114.22774374446487 634,119 C 657.9988132446983,123.77225625553513 680.7346898507831,123.90383524478975 712,112 C 743.2653101492169,100.09616475521025 783.0600538415661,76.15691527637614 812,82 C 840.9399461584339,87.84308472362386 859.0250947829529,123.46850364970567 880,136 C 900.9749052170471,148.53149635029433 924.8395670266225,137.9690701248012 954,121 C 983.1604329733775,104.03092987519881 1017.6166371105571,80.65521585108955 1048,76 C 1078.3833628894429,71.34478414891045 1104.693884531149,85.41006647084062 1126,97 C 1147.306115468851,108.58993352915938 1163.6078247648466,117.70451826554789 1190,121 C 1216.3921752351534,124.29548173445211 1252.874816409464,121.77186046696787 1285,120 C 1317.125183590536,118.22813953303213 1344.892909597296,117.2080398665806 1370,114 C 1395.107090402704,110.7919601334194 1417.5535452013519,105.3959800667097 1440,100 C 1440,100 1440,400 1440,400 Z" stroke="none" stroke-width="0" fill="url(#gradient)" class="transition-all duration-300 ease-in-out delay-150"></path><defs><linearGradient id="gradient"><stop offset="5%" stop-color="#32424888"></stop><stop offset="95%" stop-color="#0b425888"></stop></linearGradient></defs><path d="M 0,400 C 0,400 0,200 0,200 C 26.35087192042173,176.6597023516033 52.70174384084346,153.31940470320657 77,165 C 101.29825615915654,176.68059529679343 123.54389655704787,223.382083538777 153,225 C 182.45610344295213,226.617916461223 219.12266993096512,183.15226114168541 248,180 C 276.8773300690349,176.84773885831459 297.96542371909163,214.0088718944815 323,216 C 348.03457628090837,217.9911281055185 377.01563519266836,184.81225128038864 407,171 C 436.98436480733164,157.18774871961136 467.97203551023506,162.74212298396387 492,176 C 516.0279644897649,189.25787701603613 533.0962227663914,210.2192567837559 556,205 C 578.9037772336086,199.7807432162441 607.6430734241994,168.38084988101258 639,174 C 670.3569265758006,179.61915011898742 704.3314835368111,222.25734369219384 729,236 C 753.6685164631889,249.74265630780616 769.0309924285568,234.58977535021202 794,233 C 818.9690075714432,231.41022464978798 853.5445467489618,243.38355490695812 885,231 C 916.4554532510382,218.61644509304188 944.7908205755955,181.87600502195548 969,176 C 993.2091794244045,170.12399497804452 1013.2921709486563,195.1124250052199 1042,195 C 1070.7078290513437,194.8875749947801 1108.0404956297796,169.67429495716482 1132,172 C 1155.9595043702204,174.32570504283518 1166.545846532224,204.19039516612077 1190,218 C 1213.454153467776,231.80960483387923 1249.7761182413242,229.56412437835206 1277,223 C 1304.2238817586758,216.43587562164794 1322.3496805024786,205.55310732047084 1348,201 C 1373.6503194975214,196.44689267952916 1406.8251597487606,198.22344633976456 1440,200 C 1440,200 1440,400 1440,400 Z" stroke="none" stroke-width="0" fill="url(#gradient)" class="transition-all duration-300 ease-in-out delay-150"></path><defs><linearGradient id="gradient"><stop offset="5%" stop-color="#324248ff"></stop><stop offset="95%" stop-color="#0b4258ff"></stop></linearGradient></defs><path d="M 0,400 C 0,400 0,300 0,300 C 32.2660034835578,315.03712900151413 64.5320069671156,330.0742580030282 93,334 C 121.4679930328844,337.9257419969718 146.1379756150954,330.74009698940137 167,324 C 187.8620243849046,317.25990301059863 204.9160905725028,310.9653540393662 235,310 C 265.0839094274972,309.0346459606338 308.1976620948934,313.3984868531339 333,320 C 357.8023379051066,326.6015131468661 364.2932610479233,335.44069854809817 387,336 C 409.7067389520767,336.55930145190183 448.6292937134133,328.8387189544732 477,328 C 505.3707062865867,327.1612810455268 523.1895640984234,333.20442563400917 546,319 C 568.8104359015766,304.79557436599083 596.6124498928932,270.34357850949004 628,270 C 659.3875501071068,269.65642149050996 694.3606363300037,303.4212603280306 726,308 C 757.6393636699963,312.5787396719694 785.945004787092,287.9713801783876 808,289 C 830.054995212908,290.0286198216124 845.8593445216285,316.6932189584189 867,321 C 888.1406554783715,325.3067810415811 914.6176171263944,307.2557439879365 945,308 C 975.3823828736056,308.7442560120635 1009.6701869727945,328.2838050898349 1043,323 C 1076.3298130272055,317.7161949101651 1108.701634982428,287.6090356527237 1130,273 C 1151.298365017572,258.3909643472763 1161.5232730974935,259.2800522992699 1188,264 C 1214.4767269025065,268.7199477007301 1257.2052726275979,277.2707551501966 1290,290 C 1322.7947273724021,302.7292448498034 1345.6556363921147,319.6369270999438 1369,322 C 1392.3443636078853,324.3630729000562 1416.1721818039427,312.1815364500281 1440,300 C 1440,300 1440,400 1440,400 Z" stroke="none" stroke-width="0" fill="url(#gradient)" class="transition-all duration-300 ease-in-out delay-150"></path></svg>
