<svg fill="none" height="32" viewBox="0 0 32 32" width="32" xmlns="http://www.w3.org/2000/svg"><path d="m0 0h32v32h-32z" fill="#fff"/><path clip-rule="evenodd" d="m21.0032 6.30841c.2205-.18678-.1262-.38522-.5404-.62227-.1215-.06955-1.419-.9364-.7128-.93669.75-.00031 3.6339 1.66518 3.1037 2.77487-.0499.10499-.5532.93822-4.1645-.23392 2.8554.92888 5.2122 2.60341 6.3085 5.3499-.7959-.7113-1.8463-1.1437-2.9977-1.1437-1.5652 0-2.9438.7991-3.75 2.0116-.8062-1.2125-2.1848-2.0116-3.75-2.0116-2.4853 0-4.5 2.0147-4.5 4.5s2.0147 4.5 4.5 4.5c1.5652 0 2.9438-.7991 3.75-2.0116.8062 1.2125 2.1848 2.0116 3.75 2.0116 2.4853 0 4.5-2.0147 4.5-4.5 0-.0693-.0015-.1383-.0046-.2069.3117.0835.5969.2298.8365.4498 1.111 1.02.6632 3.0929-.0909 4.2716-.6149.9613-1.6835 1.7188-2.7212 2.0235-.9438 2.1527-4.7698 4.712-8.5199 4.712-3.75 0-7.57601-2.5593-8.51981-4.712-1.03773-.3047-2.10625-1.0622-2.72114-2.0235-.7541-1.1787-1.20191-3.2516-.0909-4.2716.44877-.412 1.0575-.5656 1.70111-.532.38629-4.6602 4.53994-9.24593 9.63074-9.60409 1.8802-.13215 3.1591.06487 3.9646.18895.5629.08672.8946.13782 1.0387.01605zm5.4968 9.68819c0 1.6569-1.3431 3-3 3-1.6568 0-3-1.3431-3-3s1.3432-3 3-3c1.6569 0 3 1.3431 3 3zm-7.5 0c0 1.6569-1.3431 3-3 3-1.6568 0-3-1.3431-3-3s1.3432-3 3-3c1.6569 0 3 1.3431 3 3z" fill="#000" fill-rule="evenodd"/></svg>