<svg fill="none" height="34" viewBox="0 0 34 34" width="34" xmlns="http://www.w3.org/2000/svg"><path clip-rule="evenodd" d="m20.968 2.87019c-1.0325-.10998-2.367-.17992-4.0382-.06246-6.99428.49208-12.69345 6.48879-13.6639 12.84237-2.296058.3195-3.2659 2.3633-3.2659 4.5228 0 2.8271 2.22473 5.3612 4.92657 6.357 2.164 4.0394 7.07333 6.4662 12.07343 6.4662 5 0 9.9093-2.4268 12.0733-6.4662 2.7019-.9957 4.9267-3.5299 4.9267-6.357 0-1.6729-.502-3.412-2.0697-4.1681-.2258-1.5912-.9866-3.0099-2.0921-4.0675-.8646-2.05223-2.2129-3.6693-3.8663-4.9263 1.3457-.4828 1.5365-1.9463.7914-3.06713-.9356-1.40749-3.0587-2.944571-4.7637-2.94387-1.0133.00042-1.5993 1.05126-1.0316 1.87019zm1.9825.37873c.5521.31605 1.0144.58065.7204.82968-.1921.16236-.6344.09423-1.3849-.0214-1.074-.16544-2.7792-.42813-5.286-.25193-6.7877.47754-12.32597 6.59183-12.84102 12.80543-.85815-.0448-1.66978.16-2.26813.7092-1.48134 1.3601-.88427 4.1239.1212 5.6955.81985 1.2818 2.24453 2.2917 3.62817 2.698 1.25839 2.8703 6.35968 6.2827 11.35978 6.2827 5 0 10.1013-3.4124 11.3597-6.2826 1.3837-.4063 2.8084-1.4163 3.6283-2.6981 1.0054-1.5716 1.6025-4.3354.1212-5.6955-.3195-.2932-.6997-.4883-1.1154-.5996.0041.0914.0062.1834.0062.2758 0-2.2091-1.7908-4-4-4-2.2091 0-4 1.7909-4 4s1.7909 4 4 4c2.2092 0 4-1.7909 4-4 0 3.3137-2.6863 6-6 6-2.0869 0-3.925-1.0655-5-2.6822-1.0749 1.6167-2.913 2.6822-5 2.6822-3.3137 0-5.99997-2.6863-5.99997-6s2.68627-6 5.99997-6c2.087 0 3.9251 1.0655 5 2.6822 1.075-1.6167 2.9131-2.6822 5-2.6822 1.5352 0 2.9358.5766 3.9969 1.525-1.4618-3.66201-4.6041-5.89469-8.4113-7.13318 4.815 1.56284 5.4861.45187 5.5527.31189.707-1.47958-3.1383-3.70022-4.1383-3.69981-.9416.00039.7885 1.15619.9505 1.24892zm-1.9505 13.74718c0 2.2091-1.7908 4-4 4-2.2091 0-4-1.7909-4-4s1.7909-4 4-4c2.2092 0 4 1.7909 4 4z" fill="#fff" fill-rule="evenodd"/></svg>