<svg fill="none" height="49" viewBox="0 0 49 49" width="49" xmlns="http://www.w3.org/2000/svg"><path clip-rule="evenodd" d="m24.9298 1.80773c1.6712-.11746 3.0057-.04752 4.0382.06246-.5677-.81893.0183-1.86977034 1.0316-1.87019 1.705-.00070046 3.8281 1.53638 4.7637 2.94387.7451 1.12084.5543 2.58433-.7914 3.06713 1.6534 1.257 3.0017 2.87407 3.8663 4.9263 1.1055 1.0576 1.8663 2.4763 2.0921 4.0675 1.5677.7561 2.0697 2.4952 2.0697 4.1681 0 2.8271-2.2248 5.3613-4.9267 6.357-2.164 4.0394-7.0733 6.4662-12.0733 6.4662-5.0001 0-9.9094-2.4268-12.0734-6.4662-2.7019-.9958-4.9266-3.5299-4.9266-6.357 0-2.1595.96984-4.2033 3.2659-4.5228.9705-6.35358 6.6696-12.35029 13.6639-12.84237zm6.7411 1.27087c.294-.24903-.1683-.51363-.7204-.82968-.162-.09273-1.8921-1.24853-.9505-1.24892 1-.000411 4.8453 2.22023 4.1383 3.69981-.0666.13998-.7377 1.25095-5.5527-.31189 3.8072 1.23849 6.9495 3.47117 8.4113 7.13318-1.0611-.9484-2.4617-1.52501-3.9969-1.52501-2.0869 0-3.925 1.06551-5 2.68221-1.0749-1.6167-2.913-2.68221-5-2.68221-3.3137 0-6 2.68631-6 6.00001s2.6863 6 6 6c2.087 0 3.9251-1.0655 5-2.6822 1.075 1.6167 2.9131 2.6822 5 2.6822 3.3137 0 6-2.6863 6-6 0-.0924-.0021-.1844-.0062-.2758.4157.1113.7959.3064 1.1154.5996 1.4813 1.3601.8842 4.1239-.1212 5.6955-.8199 1.2818-2.2446 2.2918-3.6283 2.6981-1.2584 2.8702-6.3597 6.2826-11.3597 6.2826-5.0001 0-10.1014-3.4124-11.3598-6.2827-1.3836-.4063-2.8083-1.4162-3.6282-2.698-1.00543-1.5716-1.60249-4.3354-.12115-5.6955.59835-.5492 1.40995-.754 2.26815-.7092.515-6.21358 6.0533-12.32789 12.841-12.80543 2.5068-.1762 4.212.08649 5.286.25193.7505.11563 1.1928.18376 1.3849.0214zm7.3291 12.9175c0 2.2091-1.7908 4-4 4-2.2091 0-4-1.7909-4-4s1.7909-4 4-4c2.2092 0 4 1.7909 4 4zm-14 4c2.2092 0 4-1.7909 4-4s-1.7908-4-4-4c-2.2091 0-4 1.7909-4 4s1.7909 4 4 4zm-25 21.662c0 2.5161 1.92258 4.658 4.98065 4.658 1.44516 0 2.39999-.5032 3.32903-1.2645l-1.10968-1.6129c-.63226.5807-1.35484.8774-2.21935.8774-1.65162 0-2.68388-1.1742-2.68388-2.658 0-1.4839 1.03226-2.6581 2.68388-2.6581.86451 0 1.58709.2968 2.21935.8774l1.10968-1.6129c-.92904-.7613-1.88387-1.2645-3.32903-1.2645-3.05807 0-4.98065 2.1419-4.98065 4.6581zm11.0114-2.1678h-2.14195v6.6839h2.21935v-3.3419c0-.8129.529-1.3678 1.3936-1.3678.1806 0 .5419.0129.8387.0903v-2.1677c-.2194-.0387-.2452-.0387-.4516-.0387-.4904 0-1.6388.3097-1.8581 1.5742zm9.4088 5.5871c-.8904.942-2.0388 1.2387-3.1226 1.2387-2.4774 0-3.9226-1.5484-3.9226-3.458 0-1.9097 1.4323-3.5097 3.729-3.5097 2.0258 0 3.5613 1.2516 3.5613 3.6129 0 .0903 0 .1935-.0129.2839h-5.1484c.0258.6064.7226 1.2903 1.9871 1.2903.6452 0 1.2516-.2323 1.8323-.7226.0831.0832.2839.3222.4939.5723h.0001l.0002.0003.0001.0001c.2461.2931.505.6013.6025.6918zm-1.8452-3.0193c-.0774-.7613-.8258-1.0581-1.4839-1.0581-.6322 0-1.4322.2839-1.5613 1.0581zm6.2992 4.258c1.0839 0 2.2323-.2967 3.1226-1.2387-.0975-.0905-.3566-.399-.6028-.6922h-.0001c-.21-.2501-.4107-.4891-.4939-.5723-.5806.4903-1.1871.7226-1.8323.7226-1.2645 0-1.9612-.6839-1.9871-1.2903h5.1484c.0129-.0904.0129-.1936.0129-.2839 0-2.3613-1.5354-3.6129-3.5613-3.6129-2.2967 0-3.729 1.6-3.729 3.5097 0 1.9096 1.4452 3.458 3.9226 3.458zm-.2065-5.3161c.6581 0 1.4065.2968 1.4839 1.0581h-3.0451c.129-.7742.929-1.0581 1.5612-1.0581zm7.9896 3.5742c.9419 0 1.4967-.7742 1.4967-1.729 0-.9678-.5806-1.742-1.5225-1.742-.8775 0-1.5484.6194-1.5484 1.6774 0 1.0839.6322 1.7936 1.5742 1.7936zm-1.5226.7226v3.7032h-2.2194v-9.5097h2.2194v.9162c.4258-.6452 1.0838-1.0581 2.0258-1.0581 1.9226 0 3.2258 1.5226 3.2258 3.5097 0 1.9354-1.2516 3.458-3.2129 3.458-.8774 0-1.6258-.4129-2.0387-1.0193zm9.5228 1.0193c1.0838 0 2.2322-.2967 3.1225-1.2387-.0974-.0905-.3565-.399-.6028-.6922l-.0001-.0001c-.21-.2501-.4107-.489-.4938-.5722-.5807.4903-1.1871.7226-1.8323.7226-1.2645 0-1.9613-.6839-1.9871-1.2903h5.1484c.0129-.0904.0129-.1936.0129-.2839 0-2.3613-1.5355-3.6129-3.5613-3.6129-2.2968 0-3.729 1.6-3.729 3.5097 0 1.9096 1.4451 3.458 3.9226 3.458zm-.2065-5.3161c.6581 0 1.4065.2968 1.4839 1.0581h-3.0452c.129-.7742.929-1.0581 1.5613-1.0581zm4.2476-1.5097h2.1419v1.4323c.1755-1.0114 1.1575-1.7123 2.1595-1.5355v2.1677c-.2968-.0774-.5079-.0903-.6885-.0903-.8645 0-1.3936.5549-1.3936 1.3678v3.3419h-2.2193z" fill="#fff" fill-rule="evenodd"/></svg>