<svg fill="none" height="32" viewBox="0 0 142 32" width="142" xmlns="http://www.w3.org/2000/svg"><path clip-rule="evenodd" d="m22.9504 2.24892c.5522.31605 1.0145.58065.7205.82968-.1921.16236-.6344.09423-1.3849-.0214-1.074-.16544-2.7792-.42813-5.2861-.25193-6.7877.47754-12.3259 6.59185-12.84095 12.80543-.85815-.0448-1.66978.16-2.26813.7092-1.481341 1.3601-.88427 4.1239.1212 5.6955.81985 1.2818 2.24453 2.2917 3.62817 2.698 1.25839 2.8703 6.35971 6.2827 11.35971 6.2827 5.0001 0 10.1014-3.4124 11.3598-6.2826 1.3836-.4063 2.8084-1.4163 3.6282-2.6981 1.0055-1.5716 1.6026-4.3354.1212-5.6955-.3194-.2932-.6997-.4883-1.1153-.5996.0041.0914.0062.1834.0062.2758 0-2.2091-1.7909-4-4-4s-4 1.7909-4 4 1.7909 4 4 4 4-1.7909 4-4c0 3.3137-2.6863 6-6 6-2.087 0-3.9251-1.0655-5-2.6822-1.0749 1.6167-2.913 2.6822-5 2.6822-3.3137 0-6-2.6863-6-6s2.6863-6.00001 6-6.00001c2.087 0 3.9251 1.06551 5 2.68221 1.0749-1.6167 2.913-2.68221 5-2.68221 1.5352 0 2.9357.57661 3.9969 1.52501-1.4618-3.66201-4.6041-5.89469-8.4113-7.13318 4.815 1.56284 5.486.45187 5.5526.31189.707-1.47958-3.1382-3.700222-4.1382-3.69981-.9416.00039.7884 1.15619.9504 1.24892zm-5.9504 17.74718c2.2091 0 4-1.7909 4-4s-1.7909-4-4-4-4 1.7909-4 4 1.7909 4 4 4zm26-3.68c0 5.0323 3.8452 9.3162 9.9613 9.3162 2.8903 0 4.8-1.0065 6.6581-2.5291l-2.2194-3.2258c-1.2645 1.1613-2.7097 1.7549-4.4387 1.7549-3.3032 0-5.3678-2.3484-5.3678-5.3162 0-2.9677 2.0646-5.3161 5.3678-5.3161 1.729 0 3.1742.5935 4.4387 1.7548l2.2194-3.22577c-1.8581-1.52258-3.7678-2.52903-6.6581-2.52903-6.1161 0-9.9613 4.2839-9.9613 9.3161zm22.0228-4.3355h-4.2839v13.3678h4.4387v-6.6839c0-1.6258 1.0581-2.7355 2.7871-2.7355.3613 0 1.0839.0258 1.6774.1807v-4.3355c-.4387-.0774-.4903-.0774-.9032-.0774-.9806 0-3.2774.6193-3.7161 3.1484zm18.8175 11.1742c-1.7806 1.8839-4.0774 2.4775-6.2451 2.4775-4.9549 0-7.8452-3.0968-7.8452-6.9162 0-3.8193 2.8645-7.0193 7.4581-7.0193 4.0516 0 7.1225 2.5032 7.1225 7.2258 0 .1806 0 .3871-.0258.5677h-10.2967c.0516 1.2129 1.4451 2.5807 3.9742 2.5807 1.2903 0 2.5032-.4645 3.6645-1.4452.1663.1663.5677.6443.9878 1.1445.4926.5865 1.0107 1.2035 1.2057 1.3845zm-3.6903-6.0387c-.1548-1.5226-1.6516-2.1161-2.9677-2.1161-1.2646 0-2.8646.5677-3.1226 2.1161zm12.5984 8.5162c2.1677 0 4.4645-.5936 6.2451-2.4775-.1949-.181-.7131-.798-1.2057-1.3845l-.0003-.0004c-.42-.5-.8212-.9778-.9875-1.1441-1.1613.9807-2.3742 1.4452-3.6645 1.4452-2.5291 0-3.9226-1.3678-3.9742-2.5807h10.2968c.0258-.1806.0258-.3871.0258-.5677 0-4.7226-3.071-7.2258-7.1226-7.2258-4.5936 0-7.4581 3.2-7.4581 7.0193 0 3.8194 2.8903 6.9162 7.8452 6.9162zm-.4129-10.6323c1.3161 0 2.8129.5935 2.9677 2.1161h-6.0903c.2581-1.5484 1.8581-2.1161 3.1226-2.1161zm15.9795 7.1484c1.883 0 2.993-1.5484 2.993-3.4581 0-1.9355-1.161-3.4838-3.045-3.4838-1.755 0-3.097 1.2387-3.097 3.3548 0 2.1677 1.265 3.5871 3.149 3.5871zm-3.046 1.4451v7.4065h-4.438v-19.0194h4.438v1.8323c.852-1.2903 2.168-2.1161 4.052-2.1161 3.845 0 6.452 3.0451 6.452 7.0193 0 3.871-2.504 6.9162-6.426 6.9162-1.755 0-3.252-.8258-4.078-2.0388zm19.046 2.0388c2.168 0 4.464-.5936 6.245-2.4775-.195-.181-.713-.798-1.206-1.3845-.42-.5002-.821-.9782-.987-1.1445-1.162.9807-2.375 1.4452-3.665 1.4452-2.529 0-3.923-1.3678-3.974-2.5807h10.297c.025-.1806.025-.3871.025-.5677 0-4.7226-3.071-7.2258-7.122-7.2258-4.594 0-7.458 3.2-7.458 7.0193 0 3.8194 2.89 6.9162 7.845 6.9162zm-.413-10.6323c1.316 0 2.813.5935 2.968 2.1161h-6.091c.258-1.5484 1.858-2.1161 3.123-2.1161zm8.495-3.0194h4.284v2.8646c.351-2.0227 2.315-3.4247 4.319-3.071v4.3355c-.594-.1549-1.016-.1807-1.377-.1807-1.729 0-2.787 1.1097-2.787 2.7355v6.6839h-4.439z" fill="#000" fill-rule="evenodd"/></svg>