<svg fill="none" height="49" viewBox="0 0 49 49" width="49" xmlns="http://www.w3.org/2000/svg"><path clip-rule="evenodd" d="m30.9504 2.24892c.5522.31605 1.0145.58065.7205.82968-.1921.16236-.6344.09423-1.3849-.0214-1.074-.16544-2.7792-.42813-5.2861-.25193-6.7877.47754-12.3259 6.59185-12.841 12.80543-.8581-.0448-1.6697.16-2.26808.7092-1.48134 1.3601-.88428 4.1239.12118 5.6955.8199 1.2818 2.2445 2.2917 3.6282 2.698 1.2584 2.8703 6.3597 6.2827 11.3597 6.2827 5.0001 0 10.1014-3.4124 11.3598-6.2826 1.3836-.4063 2.8084-1.4163 3.6282-2.6981 1.0055-1.5716 1.6026-4.3354.1212-5.6955-.3194-.2932-.6997-.4883-1.1153-.5996.0041.0914.0062.1834.0062.2758 0-2.2091-1.7909-4-4-4s-4 1.7909-4 4 1.7909 4 4 4 4-1.7909 4-4c0 3.3137-2.6863 6-6 6-2.087 0-3.9251-1.0655-5-2.6822-1.0749 1.6167-2.913 2.6822-5 2.6822-3.3137 0-6-2.6863-6-6s2.6863-6.00001 6-6.00001c2.087 0 3.9251 1.06551 5 2.68221 1.0749-1.6167 2.913-2.68221 5-2.68221 1.5352 0 2.9357.57661 3.9969 1.52501-1.4618-3.66201-4.6041-5.89469-8.4113-7.13318 4.815 1.56284 5.486.45187 5.5526.31189.707-1.47958-3.1382-3.700222-4.1382-3.69981-.9416.00039.7884 1.15619.9504 1.24892zm-5.9504 17.74718c2.2091 0 4-1.7909 4-4s-1.7909-4-4-4-4 1.7909-4 4 1.7909 4 4 4zm-25 20.662c0 2.5161 1.92258 4.658 4.98065 4.658 1.44516 0 2.39999-.5032 3.32903-1.2645l-1.10968-1.6129c-.63226.5807-1.35484.8774-2.21935.8774-1.65162 0-2.68388-1.1742-2.68388-2.658 0-1.4839 1.03226-2.6581 2.68388-2.6581.86451 0 1.58709.2968 2.21935.8774l1.10968-1.6129c-.92904-.7613-1.88387-1.2645-3.32903-1.2645-3.05807 0-4.98065 2.1419-4.98065 4.6581zm11.0114-2.1678h-2.14195v6.6839h2.21935v-3.3419c0-.8129.529-1.3678 1.3936-1.3678.1806 0 .5419.0129.8387.0903v-2.1677c-.2194-.0387-.2452-.0387-.4516-.0387-.4904 0-1.6388.3097-1.8581 1.5742zm9.4088 5.5871c-.8904.942-2.0388 1.2387-3.1226 1.2387-2.4774 0-3.9226-1.5484-3.9226-3.458 0-1.9097 1.4323-3.5097 3.729-3.5097 2.0258 0 3.5613 1.2516 3.5613 3.6129 0 .0903 0 .1935-.0129.2839h-5.1484c.0258.6064.7226 1.2903 1.9871 1.2903.6452 0 1.2516-.2323 1.8323-.7226.0831.0832.2839.3222.4939.5723h.0001l.0002.0003.0001.0001c.2461.2931.505.6013.6025.6918zm-1.8452-3.0193c-.0774-.7613-.8258-1.0581-1.4839-1.0581-.6322 0-1.4322.2839-1.5613 1.0581zm6.2992 4.258c1.0839 0 2.2323-.2967 3.1226-1.2387-.0975-.0905-.3566-.399-.6028-.6922h-.0001c-.21-.2501-.4107-.4891-.4939-.5723-.5806.4903-1.1871.7226-1.8323.7226-1.2645 0-1.9612-.6839-1.9871-1.2903h5.1484c.0129-.0904.0129-.1936.0129-.2839 0-2.3613-1.5354-3.6129-3.5613-3.6129-2.2967 0-3.729 1.6-3.729 3.5097 0 1.9096 1.4452 3.458 3.9226 3.458zm-.2065-5.3161c.6581 0 1.4065.2968 1.4839 1.0581h-3.0451c.129-.7742.929-1.0581 1.5612-1.0581zm7.9896 3.5742c.9419 0 1.4967-.7742 1.4967-1.729 0-.9678-.5806-1.742-1.5225-1.742-.8775 0-1.5484.6194-1.5484 1.6774 0 1.0839.6322 1.7936 1.5742 1.7936zm-1.5226.7226v3.7032h-2.2194v-9.5097h2.2194v.9162c.4258-.6452 1.0838-1.0581 2.0258-1.0581 1.9226 0 3.2258 1.5226 3.2258 3.5097 0 1.9354-1.2516 3.458-3.2129 3.458-.8774 0-1.6258-.4129-2.0387-1.0193zm9.5228 1.0193c1.0838 0 2.2322-.2967 3.1225-1.2387-.0974-.0905-.3565-.399-.6028-.6922l-.0001-.0001c-.21-.2501-.4107-.489-.4938-.5722-.5807.4903-1.1871.7226-1.8323.7226-1.2645 0-1.9613-.6839-1.9871-1.2903h5.1484c.0129-.0904.0129-.1936.0129-.2839 0-2.3613-1.5355-3.6129-3.5613-3.6129-2.2968 0-3.729 1.6-3.729 3.5097 0 1.9096 1.4451 3.458 3.9226 3.458zm-.2065-5.3161c.6581 0 1.4065.2968 1.4839 1.0581h-3.0452c.129-.7742.929-1.0581 1.5613-1.0581zm4.2476-1.5097h2.1419v1.4323c.1755-1.0114 1.1575-1.7123 2.1595-1.5355v2.1677c-.2968-.0774-.5079-.0903-.6885-.0903-.8645 0-1.3936.5549-1.3936 1.3678v3.3419h-2.2193z" fill="#000" fill-rule="evenodd"/></svg>