<svg xmlns="http://www.w3.org/2000/svg" width="3000" height="700" fill="none" viewBox="0 0 3000 700"><clipPath id="a"><path d="M0 0h3000v700H0z"/></clipPath><g clip-path="url(#a)"><path fill="#42a641" d="M0 0h3000v700H0z"/><path fill="#429e3f" d="M116 274c-3-3-8-4-12-3-2-33-23-51-50-60 26 8 30 2 30 2 5-10-25-24-23-19 1 5 13 7 10 10-3 2-13-3-35-1-37 2-66 35-69 68-4-1-9 1-12 4-8 7-4 22 1 30 5 6 11 11 18 13 5 13 34 33 64 32 26-1 52-17 58-31 8-3 15-8 19-14 5-9 9-24 1-31zm364-137c-3-3-7-4-12-3-1-33-22-51-49-60 26 8 29 2 30 2 4-10-26-24-24-19s14 7 11 10c-3 2-13-3-36-1-36 2-65 35-68 68-5-1-9 1-12 4-8 7-5 22 1 30 4 6 11 11 18 13 5 13 34 33 64 32 26-1 52-17 58-31 8-3 14-8 19-14 5-9 8-24 0-31zm-7 426c-3-3-8-4-12-3-2-33-22-51-49-60 25 8 29 2 29 2 5-10-25-24-23-19 1 5 13 8 10 10-2 2-13-3-35-1-36 2-66 35-68 68-5 0-10 1-13 4-8 7-4 22 1 30 5 6 11 11 18 13 5 13 34 33 64 32 26-1 52-17 58-31 8-3 15-8 19-14 6-9 9-23 1-31zm279-370c-3-3-7-4-12-4-2-33-22-51-49-60 26 9 29 3 30 2 4-10-26-24-24-19s13 8 10 10c-2 2-12-3-35-1-36 2-66 35-68 68-5 0-9 1-12 4-8 7-5 22 1 30 4 6 10 11 18 14 5 13 34 32 63 31 26 0 52-17 59-31 7-2 14-7 19-14 5-9 8-23 0-30zm186 342c-3-3-8-4-12-4-2-33-23-51-50-60 26 9 30 3 30 2 5-9-25-24-23-18 1 4 13 7 10 9-3 3-13-3-35-1-37 3-66 35-69 68-4 0-9 1-12 4-8 7-4 22 1 30 5 7 11 11 18 14 5 13 34 32 64 31 26 0 52-17 58-31 8-2 15-7 19-14 5-8 9-23 1-30zm376-256c-3-3-7-4-12-4-2-33-22-51-49-60 25 8 29 3 29 2 5-10-25-24-23-19 1 5 13 8 10 10-2 2-13-3-35-1-36 2-66 35-68 68-5 0-9 1-13 4-7 7-4 22 2 30 4 6 10 11 18 14 5 13 34 32 63 31 26-1 52-17 58-31 8-2 15-7 19-14 6-9 9-23 1-30zm747 234c-3-3-7-4-12-4-2-33-22-51-49-59 25 8 29 2 29 1 5-9-25-24-23-18 1 4 13 7 10 10-2 2-13-3-35-2-36 3-66 35-68 68-5 0-9 1-13 4-7 8-4 22 2 30 4 7 10 12 18 14 4 13 34 32 63 32 26-1 52-18 58-32 8-2 15-7 19-14 6-8 9-23 1-30zm145-357c-3-3-7-4-12-4-2-33-22-51-49-60 25 9 29 3 29 2 5-9-25-24-23-18 1 4 13 7 10 10-2 2-13-3-35-2-36 3-66 35-68 68-5 0-9 1-13 4-7 8-4 22 2 30 4 7 10 12 18 14 4 13 33 32 63 32 26-1 52-18 58-32 8-2 15-7 19-14 6-8 9-23 1-30zm-458-40c-4-3-8-4-13-4-1-33-22-51-49-59 26 8 29 2 30 1 4-9-26-24-24-18 2 4 14 7 11 10-3 2-13-3-36-2-36 3-65 35-68 68-5 0-9 1-12 4-8 8-4 22 1 30 4 7 11 12 18 14 5 13 34 32 64 32 26-1 52-18 58-32 8-2 14-7 19-14 5-8 8-23 1-30zm-170 338c-4-3-8-4-12-4-2-33-23-51-50-60 26 9 30 3 30 2 4-9-25-24-24-18 2 4 14 7 11 10-3 2-13-3-36-2-36 3-65 35-68 68-4 0-9 1-12 4-8 8-4 22 1 30 5 7 11 11 18 14 5 13 34 32 64 32 26-1 52-18 58-32 8-2 14-7 19-14 5-8 9-23 1-30zm873-86c-3-3-7-4-12-4-2-32-22-51-49-59 26 8 29 2 30 1 4-9-26-23-24-18 2 4 13 7 10 10-2 2-12-3-35-2-36 3-65 35-68 68-5 0-9 1-12 4-8 8-5 22 1 31 4 6 10 11 18 13 5 13 34 33 63 32 26-1 52-17 59-31 7-3 14-8 19-15 5-8 8-23 0-30zm389 160c-3-3-7-4-12-4-2-33-22-51-49-59 26 8 29 2 29 1 5-9-25-24-23-18 2 4 13 7 10 10-2 2-12-3-35-2-36 3-66 35-68 68-5 0-9 1-12 4-8 8-5 22 1 31 4 6 10 11 18 13 5 13 34 33 63 32 26-1 52-17 59-31 7-3 14-8 19-15 5-8 8-23 0-30zm-134-372c-3-3-8-4-12-4-2-33-23-51-49-60 25 9 29 3 29 2 5-9-25-24-23-18 1 4 13 7 10 10-2 2-13-3-35-2-36 3-66 35-69 68-4 0-9 1-12 4-8 8-4 22 1 30 5 7 11 12 18 14 5 13 34 32 64 32 26-1 52-18 58-32 8-2 15-7 19-14 6-8 9-23 1-30zm374 98c-3-3-7-4-12-4-2-33-22-51-49-59 26 8 29 2 29 1 5-9-25-24-23-18 2 4 13 7 10 10-2 2-12-3-35-2-36 3-65 35-68 68-5 0-9 1-12 4-8 8-5 22 1 31 4 6 10 11 18 13 5 13 34 33 63 32 26-1 52-18 59-32 7-2 14-7 19-14 5-8 8-23 0-30z"/><g stroke="#429e3f" stroke-linecap="round" stroke-miterlimit="10" stroke-width="8" opacity=".8"><path d="m98 345 8 6" opacity=".8"/><path stroke-dasharray="20 20" d="m122 364 178 139" opacity=".8"/><path d="m705 281 4 9M308 509l8 6z" opacity=".8"/><path stroke-dasharray="22 22" d="m718 310 67 148" opacity=".8"/><path d="m1160 350-8 5M790 468l4 9z" opacity=".8"/><path stroke-dasharray="19 19" d="M1136 366 954 487" opacity=".8"/><path d="m1640 208-4 9M946 493l-8 5z" opacity=".8"/><path stroke-dasharray="20 20" d="m1629 236-55 144" opacity=".8"/><path d="m1583 66-9-4m-4 328-3 9z" opacity=".8"/><path stroke-dasharray="21 21" d="M1555 54 1300-62" opacity=".8"/><path d="m2692 596-8 5" opacity=".8"/><path stroke-dasharray="19 19" d="m2668 613-276 198" opacity=".8"/><path d="m2823 598 8 7" opacity=".8"/><path stroke-dasharray="19 19" d="m2845 617 198 173" opacity=".8"/><path d="m2081 239-4 9" opacity=".8"/><path stroke-dasharray="20 20" d="m2068 266-64 134" opacity=".8"/><path d="m2183 228 9 6m-192 175-5 9z" opacity=".8"/><path stroke-dasharray="18 18" d="m2206 245 79 56" opacity=".8"/><path d="m2640 254 3 10m-350 42 8 6z" opacity=".8"/><path stroke-dasharray="20 20" d="m2650 283 54 142" opacity=".8"/><path d="m2726 194 10 1m-29 239 4 10z" opacity=".8"/><path stroke-dasharray="19 19" d="m2755 199 139 24" opacity=".8"/><path d="m115 230 9-2m2779-3 10 1z" opacity=".8"/><path stroke-dasharray="21 21" d="m145 224 155-30" opacity=".8"/><path d="m310 192 10-2" opacity=".8"/></g><path fill="#43a140" d="M95 53a8 8 0 0 0-6-2c-1-16-11-24-23-28 12 4 13 1 14 0 2-4-12-11-12-8 1 2 7 3 5 4H57c-18 1-32 16-33 32a8 8 0 0 0-6 2c-4 3-2 10 1 14 2 3 5 6 8 7 3 6 16 15 31 15 12-1 24-8 27-15 4-1 7-4 9-7 3-4 4-11 1-14zm821-38a8 8 0 0 0-6-2c-1-15-11-24-24-28 13 4 14 1 15 1 2-5-13-11-12-9s7 4 5 5c-1 1-6-2-17-1-17 1-31 17-32 33a8 8 0 0 0-6 1c-4 4-2 11 1 15 2 3 5 5 8 6 3 6 16 16 31 15 12 0 24-8 27-15 4-1 7-3 9-6 3-4 4-11 1-15zM247 622a8 8 0 0 0-6-2c0-16-10-25-23-29 12 4 14 1 14 1 2-4-12-11-11-9s6 4 5 5-6-1-17-1c-17 2-31 17-33 33a8 8 0 0 0-5 2c-4 3-2 10 0 14 2 3 5 5 9 6 2 7 16 16 30 16 12-1 25-9 28-15 3-1 7-4 9-7 2-4 4-11 0-14zm13-519a8 8 0 0 0-5-2c-1-16-11-24-24-28 12 4 14 1 14 0 2-4-12-11-11-8 1 2 6 3 5 4h-17c-17 1-31 16-32 32a8 8 0 0 0-6 2c-4 4-2 10 0 14 3 3 6 6 9 7 2 6 16 15 30 15 13 0 25-8 28-15 4-1 7-4 9-7 3-4 4-11 0-14zm777 45a8 8 0 0 0-6-2c-1-15-11-24-23-28 12 4 13 1 14 1 2-5-12-12-12-9 1 2 7 3 5 5-1 1-6-2-16-1-18 1-32 17-33 32a8 8 0 0 0-6 2c-4 4-2 11 1 15 2 3 5 5 8 6 3 6 16 16 31 15 12 0 24-8 27-15 4-1 7-3 9-6 3-4 4-11 1-15zm291 451a8 8 0 0 0-5-1c-1-16-11-25-24-29 12 4 14 1 14 1 2-5-12-11-11-9s6 4 5 5-6-2-17-1c-17 1-31 17-32 33a8 8 0 0 0-6 1c-4 4-2 11 0 15 2 3 5 5 9 6 2 7 16 16 30 15 13 0 25-8 28-14 4-2 7-4 9-7 3-4 4-11 0-15zm153-410a8 8 0 0 0-5-1c-1-16-11-25-24-29 12 4 14 1 14 1 3-5-12-11-11-9s7 4 5 5c-1 1-6-2-17-1-17 1-31 17-32 33a8 8 0 0 0-6 1c-4 4-2 11 0 15l9 6c2 6 16 16 30 15 13 0 25-8 28-15 4-1 7-3 9-6 3-4 4-11 0-15zm409 0a8 8 0 0 0-6-1c-1-16-11-25-24-29 13 4 14 1 14 1 3-5-12-11-11-9s7 4 5 5c-1 1-6-2-17-1-17 1-31 17-32 33a8 8 0 0 0-6 1c-4 4-2 11 1 15 2 3 5 5 8 6 2 6 16 16 30 15 13 0 25-8 28-15 4-1 7-3 9-6 3-4 4-11 0-15zm89-166a8 8 0 0 0-6-2c-1-16-11-24-24-28 13 4 14 1 14 0 3-4-12-11-11-8 1 2 7 3 5 4h-17c-17 1-31 16-32 32a8 8 0 0 0-6 2c-4 3-2 10 1 14 2 3 5 6 8 7 2 6 16 15 30 15 13-1 25-8 28-15 4-1 7-4 9-7 3-4 4-11 1-14zm-309 587a8 8 0 0 0-6-1c0-16-10-25-23-29 12 4 14 1 14 1 2-4-12-11-11-9s6 4 5 5-6-2-17-1c-17 1-31 17-33 33a8 8 0 0 0-5 2c-4 3-2 10 0 14 2 3 5 5 9 6 2 7 16 16 30 15 12 0 25-8 28-14 3-2 7-4 9-7 2-4 4-11 0-15zm-495-109a8 8 0 0 0-6-2c-1-16-11-24-23-28 12 4 14 1 14 0 2-4-12-11-11-8 0 2 6 3 4 4h-16c-18 1-32 16-33 32a8 8 0 0 0-6 2c-3 3-2 10 1 14 2 3 5 6 8 7 3 6 17 15 31 15 12-1 25-8 27-15 4-1 7-4 9-7 3-4 5-11 1-14zm100-428a8 8 0 0 0-6-2c-1-15-10-24-23-28 12 4 14 1 14 1 2-5-12-12-11-9 0 2 6 4 5 5-2 1-6-2-17-1-17 1-31 17-33 33a8 8 0 0 0-6 1c-3 4-2 11 1 15 2 3 5 5 9 6 2 6 16 16 30 15 12 0 25-8 28-15l9-6c2-4 4-11 0-15zm560 401a8 8 0 0 0-6-1c-1-16-11-25-23-29 12 4 14 1 14 1 2-4-12-11-11-9 0 2 6 4 4 5-1 1-6-1-16-1-18 1-32 17-33 33a8 8 0 0 0-6 2c-3 3-2 10 1 14 2 3 5 5 8 6 3 7 17 16 31 16 12-1 25-9 27-15 4-2 7-4 9-7 3-4 5-11 1-15zm619 101a8 8 0 0 0-6-2c-1-15-11-24-23-28 12 4 13 1 14 1 2-5-12-12-12-9 1 2 7 3 5 5-1 1-6-2-16-1-18 1-32 17-33 32a8 8 0 0 0-6 2c-4 4-2 11 1 15 2 3 5 5 8 6 3 6 17 16 31 15 12 0 24-8 27-15 4-1 7-3 9-7 3-4 4-11 1-14zm-75-412a8 8 0 0 0-6-2c-1-16-11-24-24-28 13 4 14 1 15 0 2-4-13-11-12-8 1 2 7 3 5 4h-16c-18 1-32 16-33 32a8 8 0 0 0-6 2c-3 3-2 10 1 14 2 3 5 6 8 7 3 6 16 15 31 15 12-1 24-8 27-15 4-1 7-4 9-7 3-4 4-11 1-14zm-149 354a8 8 0 0 0-5-2c-1-16-11-24-24-28 12 4 14 1 14 0 2-4-12-11-11-8 1 2 6 3 5 4h-17c-17 1-31 16-32 32a8 8 0 0 0-6 2c-4 4-2 11 0 14s5 6 9 7c2 6 16 15 30 15 13 0 25-8 28-15 4-1 7-4 9-7 3-4 4-11 0-14zm280-453a8 8 0 0 0-6-2c-1-16-11-24-24-29 13 4 14 2 15 1 2-4-13-11-12-9 1 3 7 4 5 5-1 1-6-1-17-1-17 2-31 17-32 33a8 8 0 0 0-6 2c-4 3-2 10 1 14l8 7c3 6 16 15 31 15 12-1 24-8 27-15 4-1 7-4 9-7 3-4 4-11 1-14zm348 14a8 8 0 0 0-6-2c-1-16-11-24-23-29 12 4 13 2 14 1 2-4-12-11-12-9 1 2 7 4 5 5-1 1-6-1-16-1-18 2-32 17-33 33a8 8 0 0 0-6 2c-3 3-2 10 1 14l8 7c3 6 17 15 31 15 12-1 24-9 27-15 4-1 7-4 9-7 3-4 5-11 1-14zm55 296a8 8 0 0 0-6-2c-1-15-11-24-23-28 12 4 14 1 14 1 2-5-12-12-11-9 0 2 6 3 4 5-1 1-6-2-16-1-18 1-32 17-33 32a8 8 0 0 0-6 2c-3 4-2 11 1 15 2 3 5 5 8 6 3 6 17 16 31 15 12 0 25-8 27-15 4-1 7-3 9-6 3-4 5-11 1-15zm114-351a8 8 0 0 0-6-2c0-16-10-24-23-28 12 4 14 1 14 0 2-4-12-11-11-8 1 2 6 3 5 4h-17c-17 1-31 16-32 32a8 8 0 0 0-6 2c-4 3-2 10 0 14 2 3 5 6 9 7 2 6 16 15 30 15 13-1 25-8 28-15 4-1 7-4 9-7 2-4 4-11 0-14zm-778 659a8 8 0 0 0-5-1c-1-16-11-25-24-29 12 4 14 1 14 1 2-5-12-11-11-9s6 4 5 5-6-2-17-1c-17 1-31 17-32 33a8 8 0 0 0-6 1c-4 4-2 11 0 15l9 6c2 6 16 16 30 15 13 0 25-8 28-15 4-1 7-3 9-6 3-4 4-11 0-15zM916 270a8 8 0 0 0-6-2c-1-16-11-24-24-29 13 4 14 2 15 1 2-4-13-11-12-9 1 3 7 4 5 5-1 1-6-1-17-1-17 2-31 17-32 33a8 8 0 0 0-6 2c-4 3-2 10 1 14l8 7c3 6 16 15 31 15 12-1 24-9 27-15 4-1 7-4 9-7 3-4 4-11 1-14zm218 412a8 8 0 0 0-5-1c-1-16-11-25-24-29 12 4 14 1 14 1 2-4-12-11-11-9s6 4 5 5-6-1-17-1c-17 1-31 17-32 33a8 8 0 0 0-6 2c-4 3-2 10 0 14 2 3 5 5 9 6 2 7 16 16 30 16 13-1 25-9 28-15 4-2 7-4 9-7 3-4 4-11 0-15zM395 324a8 8 0 0 0-5-2c-1-16-11-24-24-28 12 4 14 1 14 1 2-5-12-12-11-9 1 2 7 3 5 4h-17c-17 1-31 16-32 32a8 8 0 0 0-6 2c-4 4-2 11 0 14 3 3 6 6 9 7 2 6 16 15 30 15 13 0 25-8 28-15 4-1 7-3 9-7 3-4 4-11 0-14zm214 61a8 8 0 0 0-6-2c-1-15-11-24-24-28 13 4 14 1 14 1 3-5-12-12-11-9 1 2 7 3 5 5-1 1-6-2-17-1-17 1-31 17-32 32a8 8 0 0 0-6 2c-4 4-2 11 1 15 2 3 5 5 8 6 2 6 16 15 30 15 13 0 25-8 28-15 4-1 7-3 9-7 3-4 4-11 0-14zM108 520a8 8 0 0 0-6-2c-1-16-11-25-23-29 12 4 13 1 14 1 2-4-12-11-12-9 1 2 7 4 5 5-1 1-6-1-16-1-18 2-32 17-33 33a8 8 0 0 0-6 2c-4 3-2 10 1 14l8 7c3 6 17 15 31 15 12-1 24-9 27-15 4-1 7-4 9-7 3-4 4-11 1-14z"/><g stroke="#43a140" stroke-linecap="round" stroke-miterlimit="10" stroke-width="6"><path d="m104 77 10 2"/><path stroke-dasharray="18 18" d="m132 82 27 4"/><path d="m101 555 8 5m59-473 9 2z"/><path stroke-dasharray="20 20" d="m126 572 26 17"/><path d="m406 347 10 2M160 594l8 6z"/><path stroke-dasharray="20 20" d="m435 353 68 15"/><path d="m513 370 10 2"/><path stroke-dasharray="25 25" d="m141 705 22-31"/><path d="m170 664 6-9"/><path stroke-dasharray="25 25" d="m196 3 5 37"/><path d="m902 56 7 7M203 52l1 10z"/><path stroke-dasharray="22 22" d="m925 79 24 23"/><path d="m1173 533 9 5M957 110l7 7z"/><path stroke-dasharray="23 23" d="m1202 550 29 17"/><path d="m1272 104 9 4m-40 465 9 5z"/><path stroke-dasharray="18 18" d="m1298 116 89 43"/><path d="m1887 165 3-9m-494 7 9 4z"/><path stroke-dasharray="17 17" d="m1896 140 21-54"/><path d="m1667 586 8-6m245-501 3-10z"/><path stroke-dasharray="20 20" d="m1691 567 54-44"/><path d="m2252 661 9-4m-508-141 7-6z"/><path stroke-dasharray="18 18" d="m2277 651 90-35"/><path d="m2203 633-2-10m174-11 9-3z"/><path stroke-dasharray="17 17" d="m2198 606-4-25"/><path d="m2440 100-8 6m-240 466-1-10z"/><path stroke-dasharray="18 18" d="m2418 116-22 16"/><path d="m2950 49-10 1m-551 87-8 6z"/><path stroke-dasharray="25 25" d="m2916 54-37 5"/><path d="m2867 61-10 2"/><path stroke-dasharray="18 18" d="m3014 526-93-99"/><path d="m2790 49-8-6m133 377-7-7z"/><path stroke-dasharray="21 21" d="m2765 31-60-43"/><path d="m1122 543-2 10"/><path stroke-dasharray="25 25" d="m1115 577-8 37"/><path d="m912 245 7-7m186 388-2 9z"/><path stroke-dasharray="21 21" d="m934 223 23-23"/><path d="m964 193 8-7"/></g></g></svg>
