<?xml version="1.0" encoding="iso-8859-1"?>
<!-- Generator: Adobe Illustrator 18.0.0, SVG Export Plug-In . SVG Version: 6.00 Build 0)  -->
<!DOCTYPE svg PUBLIC "-//W3C//DTD SVG 1.1//EN" "http://www.w3.org/Graphics/SVG/1.1/DTD/svg11.dtd">
<svg version="1.1" id="Capa_1" xmlns="http://www.w3.org/2000/svg" xmlns:xlink="http://www.w3.org/1999/xlink" x="0px" y="0px" fill="#f0cb2f"
	 viewBox="0 0 471.957 471.957" style="enable-background:new 0 0 471.957 471.957;" xml:space="preserve">
<g>
	<path d="M471.957,235.979c0-24.413-14.354-46.578-36.217-56.737v-2.978c0-4.142-3.357-7.5-7.5-7.5h-60.922
		c-4.143,0-7.5,3.358-7.5,7.5v5.436H258.529c-4.143,0-7.5,3.358-7.5,7.5v9.226H149.741c-4.143,0-7.5,3.358-7.5,7.5v4.832H48.452
		v-4.832c0-4.142-3.357-7.5-7.5-7.5H7.5c-4.143,0-7.5,3.358-7.5,7.5v60.106c0,4.142,3.357,7.5,7.5,7.5h33.452
		c4.143,0,7.5-3.358,7.5-7.5v-4.832h93.789v4.832c0,4.142,3.357,7.5,7.5,7.5h101.288v9.226c0,4.142,3.357,7.5,7.5,7.5h101.289v5.436
		c0,4.142,3.357,7.5,7.5,7.5h60.922c4.143,0,7.5-3.358,7.5-7.5v-2.978C457.603,282.556,471.957,260.392,471.957,235.979z
		 M33.452,258.531H15v-45.106h18.452V258.531z M48.452,246.199v-20.441h93.789v20.441H48.452z M157.241,258.531v-45.106h93.788
		v45.106H157.241z M266.029,275.258v-78.558h93.789v78.558H266.029z M420.74,288.193h-45.922v-104.43h45.922V288.193z
		 M435.74,275.566v-79.174c13.013,8.687,21.217,23.494,21.217,39.587C456.957,252.071,448.753,266.879,435.74,275.566z"/>
	<path d="M343.673,203.472h-61.497c-4.143,0-7.5,3.358-7.5,7.5s3.357,7.5,7.5,7.5h61.497c4.143,0,7.5-3.358,7.5-7.5
		S347.815,203.472,343.673,203.472z"/>
	<path d="M385.973,203.473h23.613c4.143,0,7.5-3.358,7.5-7.5s-3.357-7.5-7.5-7.5h-23.613c-4.143,0-7.5,3.358-7.5,7.5
		S381.83,203.473,385.973,203.473z"/>
	<path d="M234.884,218.472h-61.497c-4.143,0-7.5,3.358-7.5,7.5s3.357,7.5,7.5,7.5h61.497c4.143,0,7.5-3.358,7.5-7.5
		S239.026,218.472,234.884,218.472z"/>
</g>
<g>
</g>
<g>
</g>
<g>
</g>
<g>
</g>
<g>
</g>
<g>
</g>
<g>
</g>
<g>
</g>
<g>
</g>
<g>
</g>
<g>
</g>
<g>
</g>
<g>
</g>
<g>
</g>
<g>
</g>
</svg>
